<svg id="visual" viewBox="0 0 900 675" width="900" height="675"
    xmlns="http://www.w3.org/2000/svg"
    xmlns:xlink="http://www.w3.org/1999/xlink" version="1.1">
    <g>
        <g transform="translate(425 215)">
            <path d="M65.2 -76.6C85.7 -60.5 104.3 -41.1 110.2 -17.9C116.1 5.2 109.2 32.1 94.8 52.7C80.5 73.2 58.7 87.4 34.6 97.2C10.4 107 -16.2 112.4 -37.5 104.2C-58.8 96 -74.8 74.2 -85.5 51.4C-96.3 28.6 -101.9 4.8 -97.9 -17.2C-94 -39.3 -80.6 -59.6 -62.7 -76.2C-44.7 -92.7 -22.4 -105.5 0 -105.5C22.4 -105.5 44.7 -92.7 65.2 -76.6Z" fill="#ff9fb2"></path>
        </g>
        <g transform="translate(226 409)">
            <path d="M70.4 -85.5C87.1 -69.8 93.8 -43.8 96.7 -18.4C99.7 7 98.8 31.8 89.2 54.3C79.5 76.8 61.1 97 37.8 106.9C14.4 116.8 -13.9 116.3 -37.2 106.1C-60.5 95.9 -78.8 76 -91.6 53.2C-104.5 30.3 -111.9 4.6 -106.5 -17.5C-101.1 -39.6 -82.8 -58.2 -62.9 -73.3C-43 -88.4 -21.5 -99.9 2.7 -103.1C26.8 -106.3 53.6 -101.1 70.4 -85.5Z" fill="#ff9fb2"></path>
        </g>
        <g transform="translate(745 382)">
            <path d="M50.1 -60.3C63.3 -48.5 71.5 -31.3 73.2 -14C74.9 3.2 70.2 20.5 61.6 35.8C53 51 40.6 64.2 24.4 72.2C8.3 80.3 -11.6 83.4 -28.1 77.3C-44.7 71.3 -57.9 56.2 -66.2 39.4C-74.5 22.6 -77.9 4.1 -74.6 -12.9C-71.2 -29.8 -61.1 -45.3 -47.6 -57C-34 -68.7 -17 -76.6 0.7 -77.4C18.4 -78.2 36.8 -72 50.1 -60.3Z" fill="#ff9fb2"></path>
        </g>
        <g transform="translate(159 131)">
            <path d="M21.2 -24.7C27.9 -19.6 34 -13.3 36 -5.8C37.9 1.7 35.6 10.5 30.9 17.1C26.2 23.7 19 28.1 11.5 30.2C4 32.4 -3.9 32.3 -11 29.9C-18.1 27.4 -24.4 22.6 -28.9 16.1C-33.3 9.6 -35.9 1.4 -34.6 -6C-33.2 -13.4 -27.8 -20.1 -21.4 -25.2C-15 -30.4 -7.5 -34 -0.1 -33.8C7.2 -33.7 14.5 -29.8 21.2 -24.7Z" fill="#ff9fb2"></path>
        </g>
        <g transform="translate(500 534)">
            <path d="M33.2 -41C42.3 -32 48.4 -20.8 52.1 -8C55.7 4.8 57 19.2 51.7 31.2C46.4 43.1 34.5 52.6 20.8 57.9C7.2 63.1 -8.3 64.1 -20.4 58.6C-32.6 53.1 -41.5 41.1 -48.7 28.3C-56 15.4 -61.6 1.8 -59.3 -10.4C-57.1 -22.5 -46.9 -33.2 -35.7 -41.8C-24.5 -50.5 -12.3 -57 -0.1 -56.9C12.1 -56.8 24.1 -50 33.2 -41Z" fill="#ff9fb2"></path>
        </g>
    </g>
</svg>