<?xml version="1.0" standalone="no"?>
<!DOCTYPE svg PUBLIC "-//W3C//DTD SVG 20010904//EN"
 "http://www.w3.org/TR/2001/REC-SVG-20010904/DTD/svg10.dtd">
<svg version="1.0" xmlns="http://www.w3.org/2000/svg"
 width="722.000000pt" height="139.000000pt" viewBox="0 0 722.000000 139.000000"
 preserveAspectRatio="xMidYMid meet">

<g transform="translate(0.000000,139.000000) scale(0.100000,-0.100000)"
fill="#000000" stroke="none">
<path d="M3254 1301 c-43 -26 -61 -79 -45 -132 36 -120 227 -114 258 9 10 40
-14 101 -50 122 -42 26 -121 26 -163 1z"/>
<path d="M179 1201 l-39 -39 0 -363 c0 -341 1 -366 19 -395 24 -40 75 -58 149
-52 47 4 60 10 84 37 l28 31 0 376 0 377 -36 33 c-33 31 -40 34 -101 34 -63 0
-67 -2 -104 -39z"/>
<path d="M1632 1206 l-37 -34 -3 -366 c-2 -320 -1 -370 13 -397 22 -42 74 -62
149 -57 51 4 63 9 87 36 l29 32 0 376 0 377 -36 33 c-33 31 -40 34 -100 34
-59 0 -67 -3 -102 -34z"/>
<path d="M2477 1203 c-4 -3 -7 -213 -7 -465 l0 -459 123 3 122 3 3 168 2 167
150 0 150 0 0 105 0 105 -150 0 -150 0 0 85 0 85 175 0 175 0 0 105 0 105
-293 0 c-162 0 -297 -3 -300 -7z"/>
<path d="M4214 1139 c3 -34 6 -241 6 -460 l0 -399 120 0 120 0 0 143 0 144 97
6 c141 10 213 36 284 106 71 70 94 134 87 246 -9 134 -73 214 -206 255 -56 17
-93 20 -289 20 l-226 0 7 -61z m421 -144 c76 -37 73 -169 -5 -210 -18 -9 -56
-15 -100 -15 l-70 0 0 120 0 120 71 0 c43 0 84 -6 104 -15z"/>
<path d="M3702 1163 c-5 -10 -12 -40 -16 -68 -13 -97 -16 -105 -41 -105 -12 0
-37 -3 -54 -6 l-32 -7 3 -86 3 -86 48 -3 47 -3 0 -158 c0 -180 13 -241 62
-297 39 -45 75 -63 145 -74 59 -10 190 3 207 20 5 5 4 34 -3 72 -19 101 -16
96 -71 94 -39 -1 -54 4 -72 22 -22 21 -23 32 -26 172 l-3 150 80 0 81 0 0 95
0 95 -80 0 -79 0 -3 93 -3 92 -92 3 c-80 2 -93 0 -101 -15z"/>
<path d="M785 1158 c-49 -29 -59 -68 -17 -68 62 0 122 -67 122 -135 0 -15 -16
-65 -36 -111 -20 -47 -34 -88 -30 -91 9 -9 54 14 67 35 11 17 13 16 39 -10 16
-15 38 -28 50 -28 27 0 77 26 82 42 3 9 15 4 37 -15 42 -35 75 -34 111 1 l28
28 20 -23 c43 -48 113 -37 137 22 21 48 21 262 1 310 -25 59 -90 71 -137 24
l-20 -20 -31 26 c-37 31 -77 29 -114 -6 l-22 -21 -21 21 c-39 39 -106 36 -132
-7 -12 -19 -13 -19 -33 4 -25 28 -73 39 -101 22z"/>
<path d="M719 1041 c-29 -22 -169 -333 -169 -372 1 -13 6 -34 13 -46 24 -44
263 -291 291 -302 42 -16 463 -15 495 2 13 6 34 25 45 40 19 26 21 44 24 208
2 98 0 179 -5 179 -4 -1 -19 -7 -33 -15 -33 -19 -90 -19 -118 0 -19 14 -24 14
-51 0 -38 -19 -74 -19 -112 0 -27 14 -32 14 -51 0 -27 -19 -85 -19 -118 -1
-21 12 -29 12 -52 0 -30 -16 -94 -19 -102 -5 -3 5 12 49 34 99 47 105 52 158
18 196 -32 36 -76 43 -109 17z"/>
<path d="M5259 997 c-100 -28 -183 -98 -231 -196 -20 -40 -23 -61 -23 -161 0
-105 2 -120 27 -170 35 -71 97 -133 167 -168 49 -24 68 -27 151 -27 83 0 102
3 151 27 70 35 132 97 167 168 25 50 27 65 27 170 0 131 -14 172 -86 254 -80
91 -234 136 -350 103z m141 -197 c53 -28 70 -235 24 -297 -41 -55 -106 -56
-147 -1 -45 61 -30 268 21 298 22 12 78 13 102 0z"/>
<path d="M5970 995 c-173 -54 -217 -276 -74 -374 18 -13 72 -40 121 -61 94
-40 115 -59 97 -88 -8 -12 -27 -18 -66 -20 -45 -2 -64 2 -112 28 -32 16 -59
30 -61 30 -2 0 -27 -32 -56 -72 -49 -68 -51 -72 -33 -85 111 -83 311 -108 427
-53 110 52 164 176 122 278 -29 69 -59 91 -205 152 -80 33 -85 37 -85 65 0 29
2 30 50 33 39 2 62 -3 98 -23 27 -14 50 -25 51 -25 2 0 27 32 55 70 l51 70
-47 31 c-27 16 -70 36 -97 44 -61 19 -176 18 -236 0z"/>
<path d="M6674 992 c-199 -71 -292 -293 -212 -508 27 -74 86 -137 166 -176 62
-31 73 -33 167 -33 102 1 180 20 241 60 l24 15 -32 58 c-47 85 -44 84 -117 59
-56 -18 -70 -19 -119 -9 -30 6 -64 20 -74 29 -25 22 -49 68 -41 77 4 3 96 6
206 6 l199 0 -4 108 c-3 83 -9 119 -27 158 -26 61 -91 127 -145 149 -62 26
-171 29 -232 7z m150 -176 c23 -9 37 -24 45 -46 6 -18 11 -35 11 -36 0 -2 -47
-4 -105 -4 -58 0 -105 3 -105 8 0 24 43 72 72 81 45 13 44 13 82 -3z"/>
<path d="M3210 838 c0 -84 3 -244 7 -356 l6 -203 116 3 116 3 3 353 2 352
-125 0 -125 0 0 -152z"/>
<path d="M470 795 c0 -150 2 -165 18 -165 13 0 17 9 18 43 1 27 19 82 52 158
29 65 52 120 52 123 0 3 -31 6 -70 6 l-70 0 0 -165z"/>
<path d="M1460 902 c0 -31 -4 -73 -10 -92 -6 -22 -6 -38 0 -44 6 -6 10 -38 10
-73 l0 -63 40 0 40 0 0 165 0 165 -40 0 -40 0 0 -58z"/>
<path d="M853 280 c-32 -13 -57 -57 -56 -98 1 -27 9 -43 32 -64 l31 -28 236 0
c259 0 281 4 304 59 16 41 5 85 -32 116 l-30 25 -231 -1 c-128 0 -242 -4 -254
-9z"/>
</g>
</svg>
