<svg id="visual" viewBox="0 0 1200 120" width="1200" height="120" xmlns="http://www.w3.org/2000/svg" xmlns:xlink="http://www.w3.org/1999/xlink" version="1.1"><rect x="0" y="0" width="1200" height="120" fill="#002233"></rect><path d="M0 67L20 66.2C40 65.3 80 63.7 120 64.3C160 65 200 68 240 71.8C280 75.7 320 80.3 360 75.2C400 70 440 55 480 45.8C520 36.7 560 33.3 600 39.5C640 45.7 680 61.3 720 71C760 80.7 800 84.3 840 77.2C880 70 920 52 960 46.8C1000 41.7 1040 49.3 1080 58.5C1120 67.7 1160 78.3 1180 83.7L1200 89L1200 121L1180 121C1160 121 1120 121 1080 121C1040 121 1000 121 960 121C920 121 880 121 840 121C800 121 760 121 720 121C680 121 640 121 600 121C560 121 520 121 480 121C440 121 400 121 360 121C320 121 280 121 240 121C200 121 160 121 120 121C80 121 40 121 20 121L0 121Z" fill="#0066FF" stroke-linecap="round" stroke-linejoin="miter"></path></svg>