<svg id="visual" viewBox="0 0 1200 120" width="1200" height="120"
    xmlns="http://www.w3.org/2000/svg"
    xmlns:xlink="http://www.w3.org/1999/xlink" version="1.1">
    <rect x="0" y="0" width="1200" height="120" fill="#F7FAFC"></rect>
    <path d="M0 66L20 61.2C40 56.3 80 46.7 120 49.3C160 52 200 67 240 72C280 77 320 72 360 64.7C400 57.3 440 47.7 480 45.3C520 43 560 48 600 56.5C640 65 680 77 720 81.3C760 85.7 800 82.3 840 78.3C880 74.3 920 69.7 960 66.2C1000 62.7 1040 60.3 1080 54.5C1120 48.7 1160 39.3 1180 34.7L1200 30L1200 121L1180 121C1160 121 1120 121 1080 121C1040 121 1000 121 960 121C920 121 880 121 840 121C800 121 760 121 720 121C680 121 640 121 600 121C560 121 520 121 480 121C440 121 400 121 360 121C320 121 280 121 240 121C200 121 160 121 120 121C80 121 40 121 20 121L0 121Z" fill="#fbdce2" stroke-linecap="round" stroke-linejoin="miter"></path>
</svg>