<svg id="visual" viewBox="0 0 1200 120" width="1200" height="120"
    xmlns="http://www.w3.org/2000/svg"
    xmlns:xlink="http://www.w3.org/1999/xlink" version="1.1">
    <rect x="0" y="0" width="1200" height="120" fill="#BBECE3"></rect>
    <path d="M0 35L22.2 40.3C44.3 45.7 88.7 56.3 133.2 54.8C177.7 53.3 222.3 39.7 266.8 35.3C311.3 31 355.7 36 400 46.7C444.3 57.3 488.7 73.7 533.2 71.8C577.7 70 622.3 50 666.8 39.7C711.3 29.3 755.7 28.7 800 29C844.3 29.3 888.7 30.7 933.2 35.3C977.7 40 1022.3 48 1066.8 50.5C1111.3 53 1155.7 50 1177.8 48.5L1200 47L1200 121L1177.8 121C1155.7 121 1111.3 121 1066.8 121C1022.3 121 977.7 121 933.2 121C888.7 121 844.3 121 800 121C755.7 121 711.3 121 666.8 121C622.3 121 577.7 121 533.2 121C488.7 121 444.3 121 400 121C355.7 121 311.3 121 266.8 121C222.3 121 177.7 121 133.2 121C88.7 121 44.3 121 22.2 121L0 121Z" fill="#ffffff" stroke-linecap="round" stroke-linejoin="miter"></path>
</svg>