<?xml version="1.0" standalone="no"?>
<!DOCTYPE svg PUBLIC "-//W3C//DTD SVG 20010904//EN"
 "http://www.w3.org/TR/2001/REC-SVG-20010904/DTD/svg10.dtd">
<svg version="1.0"
    xmlns="http://www.w3.org/2000/svg" width="699.000000pt" height="600.000000pt" viewBox="0 0 699.000000 600.000000" preserveAspectRatio="xMidYMid meet">

    <g transform="translate(0.000000,600.000000) scale(0.100000,-0.100000)" fill="#000000" stroke="none">
        <path d="M2625 5723 c-103 -12 -237 -38 -280 -55 -74 -29 -109 -60 -190 -169
-61 -81 -78 -114 -105 -196 -50 -153 -100 -248 -190 -358 -100 -121 -121 -162
-128 -241 -4 -51 0 -70 23 -121 50 -113 145 -176 256 -172 l60 3 29 -50 c36
-64 70 -89 233 -176 73 -38 156 -87 184 -109 90 -68 171 -174 257 -335 197
-372 213 -392 380 -493 59 -36 109 -67 111 -71 2 -3 -32 -78 -75 -165 -54
-111 -98 -186 -144 -244 -37 -46 -85 -115 -108 -154 -52 -90 -131 -255 -126
-266 2 -5 17 -4 34 4 26 11 42 34 93 139 71 143 147 234 280 336 91 70 141
120 120 120 -9 0 -37 -7 -63 -16 -26 -9 -50 -14 -53 -11 -3 3 9 43 27 89 18
46 36 94 41 106 l9 24 46 -27 c136 -80 -3 69 -214 229 -118 89 -151 132 -247
317 -102 197 -144 266 -223 362 -71 87 -142 142 -267 205 -198 99 -276 180
-261 273 12 78 55 139 191 278 73 75 142 155 153 178 12 22 38 99 57 169 45
157 62 192 129 257 29 29 65 73 79 99 27 47 94 108 118 108 18 0 63 -57 94
-118 29 -59 41 -111 50 -223 l7 -85 -72 -145 -73 -144 6 -130 c5 -116 36 -307
52 -323 3 -4 10 0 15 8 19 31 23 108 10 215 -21 169 -19 177 62 353 61 133 72
167 76 222 9 149 -67 327 -168 394 -76 50 -133 28 -226 -89 -26 -33 -72 -86
-101 -118 -73 -80 -95 -121 -158 -297 -30 -84 -65 -169 -78 -189 -14 -20 -71
-88 -127 -151 -106 -119 -153 -195 -171 -280 -13 -60 -19 -61 -103 -19 -101
51 -185 148 -186 214 0 25 60 115 173 260 90 115 119 170 162 317 21 71 39
106 101 193 83 116 100 128 223 165 40 12 80 24 87 27 24 9 16 -20 -21 -77
-41 -66 -42 -70 -11 -70 27 0 75 49 106 109 l19 39 58 -14 c93 -22 118 -1 66
55 -29 31 -58 40 -108 34z"/>
        <path d="M2305 5518 c-26 -29 -42 -54 -37 -56 6 -2 50 14 98 34 l87 38 -39 17
c-21 10 -44 18 -51 18 -6 1 -32 -22 -58 -51z"/>
        <path d="M2341 5415 c-36 -42 -44 -69 -32 -110 l9 -30 30 65 c54 116 52 141
-7 75z"/>
        <path d="M2798 5431 l-22 -19 34 -21 c35 -21 85 -28 94 -13 9 15 -22 49 -54
60 -24 9 -33 7 -52 -7z"/>
        <path d="M2917 5342 c-25 -27 -37 -69 -37 -128 0 -46 3 -54 19 -54 10 0 23 6
28 13 12 14 24 187 13 187 -4 0 -14 -8 -23 -18z"/>
        <path d="M2430 4534 c-100 -57 -173 -138 -102 -113 53 18 134 74 154 107 25
40 11 42 -52 6z"/>
        <path d="M2956 4391 c-15 -27 -14 -30 27 -77 24 -27 94 -101 158 -164 63 -63
166 -170 228 -238 63 -68 142 -145 177 -171 35 -27 81 -71 103 -98 22 -28 89
-103 149 -167 61 -64 118 -133 127 -153 13 -26 18 -62 18 -118 0 -70 -6 -97
-46 -215 -33 -94 -53 -176 -68 -270 -33 -219 -47 -267 -126 -425 -79 -157
-131 -285 -115 -285 17 1 106 135 155 235 76 152 101 229 142 428 20 95 58
240 85 324 65 196 65 221 4 343 -37 74 -66 113 -155 208 -181 194 -252 265
-296 300 -23 18 -95 93 -159 168 -72 84 -159 171 -228 228 -81 67 -117 104
-130 134 -11 23 -23 42 -27 42 -5 0 -15 -13 -23 -29z"/>
        <path d="M2126 4217 c10 -14 49 -58 85 -99 87 -97 99 -119 170 -304 100 -262
126 -297 303 -403 58 -35 106 -68 106 -73 0 -6 -17 -47 -38 -92 -34 -71 -50
-92 -132 -166 -143 -130 -329 -391 -318 -446 6 -35 26 -23 69 43 92 144 182
254 264 323 95 81 153 151 191 234 l26 58 39 -6 c30 -5 37 -3 33 7 -9 24 -111
107 -202 163 -156 98 -184 137 -247 339 -51 162 -83 222 -167 311 -69 72 -126
114 -177 129 l-24 7 19 -25z"/>
        <path d="M3150 3890 c11 -22 44 -69 73 -103 65 -76 140 -178 236 -320 40 -59
78 -110 84 -114 18 -11 -1 74 -29 130 -48 95 -166 251 -265 350 -54 53 -103
97 -109 97 -6 0 -2 -17 10 -40z"/>
        <path d="M3436 3718 c45 -78 131 -184 141 -175 9 9 -46 103 -84 145 -37 39
-74 58 -57 30z"/>
        <path d="M3610 3482 c0 -4 26 -48 58 -97 58 -89 142 -185 161 -185 12 0 -15
72 -53 148 -26 51 -62 89 -116 121 -37 22 -50 26 -50 13z"/>
        <path d="M3423 3260 c98 -103 101 -109 88 -172 -7 -29 -39 -104 -72 -166 -33
-63 -59 -116 -56 -118 7 -7 97 67 136 111 68 78 87 163 55 240 -8 21 -13 46
-11 56 4 15 -14 29 -88 69 -52 27 -99 50 -106 50 -6 0 18 -31 54 -70z"/>
        <path d="M3003 3193 c4 -39 0 -61 -25 -118 -17 -38 -33 -90 -35 -115 l-4 -45
20 25 c12 14 44 59 72 100 50 73 51 76 45 129 -8 68 -10 71 -48 71 l-31 0 6
-47z"/>
        <path d="M3633 2898 c-85 -101 -193 -246 -193 -259 0 -27 107 80 212 211 37
47 68 101 68 120 0 23 -21 6 -87 -72z"/>
        <path d="M5228 2836 c-52 -14 -107 -52 -136 -93 -10 -16 -30 -59 -42 -98 -29
-88 -42 -108 -98 -151 -38 -29 -53 -34 -98 -34 -84 0 -71 -22 36 -60 83 -29
187 -81 271 -135 66 -43 109 -95 109 -132 0 -26 -40 -66 -110 -110 -30 -20
-65 -44 -77 -55 l-22 -21 -81 42 c-44 23 -86 41 -92 39 -6 -2 20 -28 58 -58
38 -29 73 -57 78 -61 5 -4 -14 -37 -43 -72 -50 -64 -52 -65 -118 -77 -172 -31
-453 -145 -609 -246 -58 -37 -61 -38 -189 -46 -71 -4 -152 -12 -178 -18 -26
-5 -49 -10 -51 -10 -2 0 -6 27 -9 60 -3 33 -15 80 -27 106 -24 49 -145 182
-156 172 -3 -4 11 -38 32 -75 100 -178 111 -218 80 -288 -18 -39 -21 -27 -35
104 -13 117 -16 127 -38 109 -13 -11 -15 -31 -10 -129 l6 -116 -187 -91 c-134
-65 -227 -103 -327 -133 -151 -45 -213 -72 -284 -123 -68 -49 -118 -73 -275
-126 -78 -27 -155 -54 -172 -61 -30 -12 -36 -10 -120 45 -60 38 -97 56 -114
54 -50 -6 -34 -34 55 -94 l87 -59 -32 -26 c-28 -24 -139 -91 -310 -188 -50
-29 -65 -43 -86 -87 -35 -72 -30 -92 35 -135 68 -46 125 -66 226 -80 119 -17
206 -6 363 46 75 24 182 54 237 65 118 24 214 68 303 140 59 48 62 53 62 94
l0 44 78 11 c42 7 167 16 277 21 271 12 441 47 591 123 63 32 115 50 179 62
49 9 121 28 160 41 56 20 102 27 232 35 291 17 550 107 780 271 54 38 116 79
138 90 70 36 122 86 149 143 34 70 50 187 42 301 l-7 91 58 34 c73 43 95 76
138 212 50 152 53 209 20 322 -52 180 -94 234 -235 305 -73 37 -233 86 -344
105 -103 18 -106 18 -168 1z m265 -111 c89 -20 189 -48 223 -64 71 -33 129
-89 157 -151 40 -89 32 -376 -14 -479 -11 -25 -34 -61 -52 -79 l-31 -32 -46
43 c-83 78 -97 88 -169 117 -82 33 -125 62 -268 175 -71 56 -128 92 -193 120
-50 22 -94 43 -96 47 -2 3 14 27 35 52 29 33 47 70 66 129 14 45 31 92 37 105
32 62 122 67 351 17z m-60 -656 c130 -43 234 -136 263 -235 23 -79 23 -213 0
-281 -23 -70 -85 -137 -160 -175 -33 -17 -92 -60 -131 -95 -82 -77 -136 -105
-310 -165 -183 -64 -288 -86 -482 -103 -106 -9 -193 -22 -236 -35 -64 -20 -70
-20 -81 -4 -12 15 -26 11 -167 -51 -181 -80 -224 -95 -344 -123 -82 -19 -502
-59 -512 -48 -6 5 148 89 205 111 62 25 53 39 -21 33 -67 -6 -192 -57 -253
-103 -19 -14 -73 -72 -121 -128 -48 -56 -94 -108 -103 -115 -40 -34 -124 -66
-239 -92 -69 -17 -180 -45 -246 -64 -190 -55 -244 -61 -340 -36 -92 23 -209
75 -201 89 9 15 174 124 293 195 69 41 125 82 144 106 30 37 42 43 208 96 189
60 279 100 369 163 39 28 121 64 257 114 110 41 318 120 462 176 l262 101 188
1 c257 1 319 11 203 34 -19 4 -39 10 -44 12 -13 9 281 160 364 187 41 14 115
35 164 46 143 33 164 46 248 151 86 107 105 125 170 162 25 15 56 43 68 62 25
41 38 43 123 14z"/>
        <path d="M5110 1523 c-14 -2 -36 -6 -50 -9 -41 -9 -6 -21 145 -49 121 -22 141
-24 153 -11 8 8 12 21 9 29 -8 22 -190 50 -257 40z"/>
        <path d="M5185 1416 c-16 -7 -61 -42 -100 -76 -80 -72 -141 -103 -238 -120
-43 -8 -64 -16 -56 -21 21 -13 154 -22 206 -14 44 6 56 15 146 107 114 117
129 138 95 138 -13 -1 -36 -7 -53 -14z"/>
        <path d="M4730 1334 c-98 -29 -179 -64 -218 -95 -52 -40 -113 -101 -108 -107
3 -3 68 25 143 63 76 37 170 78 208 90 62 19 70 25 73 48 4 32 8 32 -98 1z"/>
        <path d="M3960 1183 c-14 -2 -41 -9 -60 -15 -30 -10 -32 -12 -15 -19 11 -4 43
-8 70 -8 28 -1 101 -10 163 -22 109 -21 113 -21 140 -3 l27 18 -45 14 c-105
32 -217 46 -280 35z"/>
        <path d="M4307 2629 c-27 -4 -72 -19 -100 -34 -55 -27 -145 -100 -136 -110 3
-3 46 14 95 37 87 42 92 43 189 42 88 0 114 -5 213 -38 61 -20 112 -40 112
-44 0 -4 -24 -22 -52 -39 -55 -33 -115 -89 -106 -98 3 -3 56 18 117 46 l112
52 -3 45 c-3 44 -3 44 -63 69 -149 60 -288 87 -378 72z"/>
        <path d="M2141 2566 c-28 -16 -26 -17 64 -46 89 -29 143 -56 251 -126 47 -31
107 -65 133 -75 l46 -17 -1 -79 c-1 -88 -15 -128 -68 -197 -30 -40 -36 -56
-36 -97 0 -27 3 -49 8 -49 4 0 21 19 37 41 17 23 54 63 83 89 l52 49 0 120 0
121 38 -16 c20 -9 123 -51 229 -95 233 -95 252 -104 375 -186 160 -106 270
-147 285 -106 8 22 -30 55 -148 128 -217 134 -297 172 -529 250 -124 41 -239
75 -257 75 -21 0 -54 15 -100 47 -154 106 -191 128 -258 155 -77 30 -164 36
-204 14z"/>
        <path d="M3901 2516 c-18 -21 -5 -36 30 -36 34 0 35 15 2 37 -17 12 -22 11
-32 -1z"/>
        <path d="M3992 2471 c-6 -16 -26 -47 -46 -69 -20 -22 -36 -41 -36 -43 0 -2 53
-4 118 -4 127 -1 261 -24 324 -56 42 -21 55 -43 88 -144 41 -126 62 -148 88
-90 13 27 0 126 -22 180 -15 35 -147 154 -199 178 -18 9 -56 19 -86 23 -51 7
-53 6 -43 -13 6 -11 18 -25 26 -33 9 -7 16 -17 16 -23 0 -6 -19 8 -43 31 l-42
42 -30 -20 c-17 -11 -33 -20 -37 -20 -4 0 -16 20 -27 45 -23 52 -35 56 -49 16z"/>
        <path d="M2186 2483 c-3 -3 -6 -17 -6 -30 0 -29 -19 -67 -77 -155 -53 -81 -99
-199 -178 -462 -59 -191 -61 -196 -87 -196 -31 0 -307 -100 -418 -152 -77 -35
-273 -177 -375 -269 l-56 -52 47 -48 c73 -74 152 -86 304 -47 58 15 118 22
190 23 87 1 124 7 215 34 129 38 186 62 233 97 29 23 35 24 50 11 152 -130
263 -211 362 -263 46 -24 69 -29 140 -32 l85 -3 -27 23 c-15 13 -67 47 -115
77 -319 198 -397 261 -456 369 -32 59 -77 185 -77 216 0 12 29 109 64 216 36
107 78 241 96 298 27 92 36 108 80 152 54 54 56 62 39 139 -11 50 -20 66 -33
54z m-263 -1032 l38 -124 -38 -39 c-55 -57 -86 -73 -198 -101 -55 -15 -120
-33 -145 -42 l-45 -16 -30 35 -30 36 -55 -26 c-78 -36 -175 -57 -237 -51 -58
6 -123 27 -123 39 0 18 270 222 335 253 39 18 124 50 190 70 66 20 156 49 200
64 44 16 84 28 89 27 6 -1 27 -58 49 -125z"/>
        <path d="M3826 2344 c-8 -22 -1 -29 81 -79 53 -32 82 -59 138 -132 38 -50 74
-92 78 -92 13 -1 -3 172 -17 186 -12 13 -217 116 -252 127 -15 5 -24 2 -28
-10z"/>
        <path d="M4560 2305 c0 -3 31 -39 69 -79 73 -77 93 -109 121 -190 12 -38 26
-56 50 -70 l33 -20 -5 81 c-7 94 -21 124 -81 180 -55 51 -187 120 -187 98z"/>
        <path d="M4270 2276 c0 -7 -3 -34 -6 -60 l-7 -46 42 0 c22 0 41 2 41 5 0 8
-61 115 -66 115 -2 0 -4 -6 -4 -14z"/>
        <path d="M4830 2230 c0 -8 77 -64 128 -94 21 -12 14 21 -10 49 -23 26 -118 62
-118 45z"/>
        <path d="M4300 2055 c8 -10 46 -47 84 -84 37 -36 100 -103 138 -148 38 -46 75
-83 82 -83 14 0 13 8 -5 107 l-10 52 -97 59 c-127 78 -212 121 -192 97z"/>
        <path d="M4065 1935 c-38 -19 -66 -25 -118 -25 -43 0 -80 -6 -99 -16 -17 -9
-60 -20 -97 -25 -77 -11 -107 -32 -77 -54 34 -26 256 -67 256 -48 0 5 -22 22
-50 37 -27 15 -50 31 -50 35 0 4 11 13 24 19 20 9 44 6 122 -13 97 -25 149
-31 142 -17 -2 4 -10 19 -18 35 -12 25 -11 30 8 57 36 48 30 51 -43 15z"/>
        <path d="M4270 1870 c0 -6 17 -29 38 -53 21 -23 53 -63 71 -89 17 -27 36 -48
42 -48 14 0 29 46 29 88 0 36 -2 38 -69 69 -89 40 -111 47 -111 33z"/>
        <path d="M3588 1809 c-10 -5 -20 -26 -24 -47 -10 -56 -19 -69 -117 -169 -50
-51 -85 -93 -78 -93 18 0 70 28 124 67 26 19 47 31 47 26 0 -4 -12 -46 -25
-92 -25 -84 -26 -99 -6 -86 49 30 137 320 116 384 -7 23 -12 25 -37 10z"/>
    </g>
</svg>
