<?xml version="1.0" standalone="no"?>
<!DOCTYPE svg PUBLIC "-//W3C//DTD SVG 20010904//EN"
 "http://www.w3.org/TR/2001/REC-SVG-20010904/DTD/svg10.dtd">
<svg version="1.0" xmlns="http://www.w3.org/2000/svg"
 width="398.000000pt" height="345.000000pt" viewBox="0 0 398.000000 345.000000"
 preserveAspectRatio="xMidYMid meet">

<g transform="translate(0.000000,345.000000) scale(0.100000,-0.100000)"
fill="#000000" stroke="none">
<path d="M1450 3341 c-76 -23 -147 -89 -171 -157 -21 -58 -18 -236 5 -302 21
-62 36 -72 110 -72 48 0 56 -3 56 -19 0 -25 -18 -31 -82 -24 -46 5 -56 10 -70
34 -9 15 -29 31 -44 35 -43 11 -205 -14 -236 -37 -22 -15 -44 -19 -112 -19
l-85 0 -6 48 c-40 284 -185 437 -351 367 -85 -35 -176 -170 -213 -317 l-19
-73 -85 4 c-94 4 -127 -7 -127 -42 0 -40 18 -47 117 -47 l93 0 0 -67 c1 -189
87 -374 196 -419 108 -45 245 30 318 174 33 65 66 185 66 239 l0 43 89 0 88 0
6 -46 c3 -26 15 -60 28 -78 26 -34 27 -51 19 -336 -5 -150 -1 -167 63 -256 19
-27 38 -59 41 -72 4 -12 20 -29 36 -37 63 -33 136 -10 207 63 l42 45 65 -59
c74 -67 140 -150 131 -164 -4 -6 -36 -7 -78 -4 -90 7 -222 -22 -301 -66 -56
-32 -249 -222 -285 -281 -23 -37 -27 -101 -11 -144 5 -14 39 -53 76 -88 36
-34 90 -100 121 -147 30 -47 102 -133 159 -191 71 -73 104 -113 104 -129 0
-61 -138 -210 -273 -294 -42 -26 -79 -56 -82 -66 -8 -26 10 -57 37 -65 13 -4
32 -15 43 -25 32 -28 55 -31 142 -16 92 17 109 24 226 100 45 30 108 61 139
71 76 22 102 53 94 114 -6 45 -31 100 -109 242 -28 52 -59 128 -77 193 -31
111 -62 181 -111 253 -16 23 -29 46 -29 51 0 11 47 22 94 22 17 1 42 7 56 15
36 21 39 19 33 -24 -6 -45 4 -67 67 -141 26 -30 69 -93 96 -140 38 -65 77
-112 171 -205 118 -116 143 -151 143 -199 0 -28 -191 -312 -259 -386 -65 -70
-66 -94 -8 -121 23 -11 56 -28 72 -38 17 -10 62 -21 104 -25 72 -6 76 -5 157
34 92 44 114 69 138 150 9 30 37 89 61 130 50 82 54 104 26 158 -22 45 -57
153 -105 324 -44 158 -92 255 -164 330 -30 32 -51 58 -46 59 5 1 41 0 81 -1
118 -3 207 53 259 164 26 56 32 142 13 179 -7 12 -13 47 -13 78 -2 47 -9 69
-44 129 -23 40 -40 75 -38 78 3 2 20 -5 39 -17 39 -24 56 -25 111 -10 149 41
246 301 246 659 0 102 24 173 62 184 30 8 109 7 175 0 l51 -7 7 -81 c9 -106
36 -210 73 -282 120 -236 350 -211 473 51 33 69 69 202 69 253 l0 35 146 -7
c104 -4 151 -3 160 5 17 14 18 65 2 75 -6 4 -77 10 -157 13 l-146 6 -7 60
c-16 127 -62 237 -129 310 -49 53 -93 75 -153 75 -132 0 -238 -118 -300 -332
l-24 -83 -121 -3 c-118 -3 -122 -2 -144 22 -28 30 -61 43 -141 57 -137 23
-131 23 -155 -6 -11 -15 -21 -36 -21 -46 0 -18 -9 -19 -137 -18 -130 1 -143 3
-228 34 -110 41 -161 55 -198 55 -37 0 -83 48 -98 102 -7 29 -7 69 1 144 13
124 5 166 -42 211 -18 18 -53 39 -77 48 -45 16 -148 19 -191 6z m210 -34 c25
-12 55 -38 68 -57 23 -34 23 -39 16 -175 -6 -130 -5 -144 14 -180 27 -55 53
-75 98 -81 65 -7 92 -15 195 -54 88 -33 105 -43 143 -88 44 -52 70 -111 82
-189 l7 -43 -33 0 c-17 0 -62 14 -100 30 -38 17 -83 29 -102 29 -27 -1 -28 -3
-8 -6 13 -3 62 -20 107 -39 45 -19 96 -34 113 -34 36 0 74 -34 96 -85 21 -51
17 -73 -17 -113 -43 -48 -69 -108 -69 -159 0 -58 15 -55 17 3 2 64 34 119 112
194 60 57 70 72 80 118 6 29 11 72 11 95 l1 42 20 -24 c11 -13 22 -21 25 -18
11 11 -31 55 -73 77 -46 25 -76 74 -71 118 3 24 8 28 52 33 35 4 50 1 53 -8 9
-22 -17 -43 -56 -44 -24 -1 -28 -3 -13 -6 19 -4 21 -7 11 -19 -21 -26 -2 -26
28 0 24 21 37 24 66 19 21 -3 37 -7 37 -8 0 -1 -7 -16 -16 -34 -9 -18 -13 -39
-9 -49 6 -13 10 -9 16 18 9 43 44 73 75 66 13 -4 34 -1 48 6 15 6 29 8 32 5
10 -10 -16 -69 -43 -98 -26 -29 -31 -48 -6 -28 15 13 16 2 10 -151 -10 -288
-78 -478 -192 -537 -56 -30 -96 -34 -126 -12 -15 10 -34 19 -42 19 -25 0 -76
49 -99 94 -11 22 -60 98 -109 168 -81 115 -103 158 -81 158 5 0 19 -12 33 -26
13 -14 44 -36 69 -49 54 -27 116 -43 106 -26 -4 6 -15 11 -24 11 -30 1 -99 37
-141 75 -34 31 -44 35 -56 25 -8 -7 -15 -18 -15 -25 0 -26 -79 -84 -136 -101
-121 -35 -268 20 -322 121 -9 18 -16 55 -16 92 0 34 -3 60 -8 57 -15 -9 -8
-109 11 -150 23 -51 90 -108 149 -128 54 -19 149 -21 204 -4 22 6 59 29 82 50
l44 38 26 -40 26 -40 -23 0 c-13 0 -34 -13 -49 -30 -17 -19 -21 -30 -12 -30 7
0 18 9 24 20 11 21 73 29 85 11 9 -16 -35 -79 -63 -90 l-27 -9 28 -1 c22 -1
32 7 49 34 11 20 25 34 30 33 6 -2 37 -46 69 -98 l59 -94 -27 -29 c-63 -66
-167 -110 -289 -122 -70 -7 -71 -7 -77 18 -6 23 -113 124 -123 115 -2 -3 21
-28 51 -55 88 -81 73 -100 -48 -63 -54 17 -73 29 -107 68 -41 46 -54 68 -66
116 -4 17 1 25 20 34 14 6 26 16 26 21 0 13 -60 -18 -67 -34 -2 -8 1 -24 8
-37 l12 -23 -24 20 c-70 59 -90 86 -109 140 -11 32 -20 60 -20 62 0 1 17 3 38
3 48 0 112 18 112 32 0 6 -7 7 -17 2 -10 -4 -51 -10 -92 -12 -71 -4 -74 -3
-107 29 -46 45 -69 109 -69 194 0 39 4 82 8 98 4 16 3 27 -2 27 -15 0 -24 -83
-19 -159 6 -76 44 -159 85 -186 l23 -16 -20 -39 c-11 -21 -30 -46 -42 -54 -12
-9 -19 -18 -16 -21 12 -12 48 20 70 62 13 23 26 39 29 35 15 -16 40 -113 34
-131 -17 -53 -138 -129 -183 -114 -37 11 -62 27 -62 38 0 7 -20 43 -45 81 -65
98 -68 117 -60 341 7 168 10 193 24 193 11 1 8 7 -12 21 -31 24 -57 68 -57 99
0 17 3 19 18 11 10 -5 38 -7 62 -4 l43 6 -16 -24 c-20 -27 -22 -80 -5 -97 19
-19 33 -14 15 6 -21 23 -21 33 0 77 13 26 23 35 42 35 24 1 25 1 6 12 -24 13
-45 38 -45 54 0 8 19 10 68 7 37 -3 69 -8 72 -10 2 -2 -10 -15 -27 -29 -52
-40 -67 -97 -60 -220 6 -84 4 -111 -8 -135 -28 -53 -36 -127 -24 -214 6 -44
15 -84 20 -90 6 -6 6 9 2 40 -16 101 -10 207 14 252 21 39 22 48 12 129 -15
137 8 207 79 238 20 9 57 27 82 40 25 13 60 26 78 30 29 5 35 2 50 -24 9 -16
20 -30 24 -30 10 0 -1 29 -24 62 -10 14 -18 31 -18 36 0 6 24 24 54 41 64 35
86 64 85 106 l-1 30 -8 -32 c-10 -45 -25 -60 -92 -94 -65 -33 -139 -39 -175
-14 -32 22 -53 104 -53 204 0 95 12 152 42 194 69 97 222 131 338 74z m-1016
-144 c73 -51 136 -185 152 -323 l7 -62 -109 4 -108 3 -10 -28 c-16 -44 10 -57
110 -57 97 0 114 -5 114 -34 -1 -50 -32 -165 -64 -231 -107 -226 -297 -266
-411 -85 -82 131 -106 376 -53 550 74 243 237 358 372 263z m2744 -38 c69 -29
127 -102 168 -210 31 -84 48 -196 31 -208 -7 -4 -57 -5 -113 -2 -112 7 -128 0
-122 -52 3 -24 8 -28 38 -30 19 -2 72 -6 118 -9 l82 -6 0 -42 c0 -107 -70
-276 -151 -361 -99 -105 -210 -107 -302 -6 -46 52 -71 101 -99 198 -34 116
-31 303 6 428 36 118 79 197 137 249 71 63 137 80 207 51z m-2210 -345 c-8
-29 -16 -40 -29 -40 -20 0 -24 17 -13 58 4 14 14 22 29 22 22 0 22 -2 13 -40z
m93 30 c25 -14 25 -40 -1 -40 -10 0 -24 -9 -30 -20 -15 -28 -50 -26 -50 3 0
46 12 67 37 67 13 0 33 -5 44 -10z m1242 4 c3 -4 -3 -18 -13 -32 -11 -13 -20
-33 -20 -42 0 -19 -26 -34 -41 -24 -15 9 -10 37 11 72 18 29 47 41 63 26z
m-1395 -28 c-3 -14 -2 -45 2 -70 6 -40 4 -46 -11 -46 -22 0 -42 58 -33 96 9
39 13 44 31 44 11 0 14 -7 11 -24z m-53 -56 c1 -57 -2 -70 -15 -70 -27 0 -40
22 -40 70 0 48 13 70 40 70 12 0 15 -14 15 -70z m1489 53 c-5 -10 -9 -42 -9
-70 0 -63 -15 -69 -33 -13 -16 52 -15 60 5 82 21 24 48 24 37 1z m-2324 -18
c0 -25 0 -25 -95 -25 -85 0 -95 2 -95 18 0 29 8 32 102 32 87 0 88 0 88 -25z
m2383 -5 c-10 -21 -13 -43 -8 -71 7 -39 6 -40 -16 -37 -21 3 -24 10 -27 47 -5
70 4 91 37 91 29 0 29 0 14 -30z m88 1 l24 -19 -28 -11 c-25 -10 -27 -14 -21
-46 6 -32 4 -35 -19 -35 -17 0 -26 7 -31 23 -23 85 19 134 75 88z m-1818 2
c107 -6 107 -6 107 -32 l0 -26 -157 2 c-87 1 -177 5 -200 8 -37 5 -43 10 -43
31 0 24 1 24 93 24 52 0 142 -3 200 -7z m487 -11 c0 -5 -16 -16 -35 -25 -33
-16 -38 -16 -60 -1 -14 9 -22 20 -19 25 7 11 114 12 114 1z m1040 -33 c0 -4
-7 -9 -15 -13 -8 -3 -15 -12 -15 -21 0 -12 -15 -15 -77 -15 -65 0 -80 3 -100
22 -13 12 -23 26 -23 31 0 5 50 7 115 5 63 -1 115 -6 115 -9z m548 -9 c38 0
42 -2 42 -25 l0 -25 -149 0 c-157 0 -161 1 -161 47 0 14 14 15 113 10 61 -4
131 -7 155 -7z m750 -27 l172 -6 0 -30 0 -29 -177 6 c-98 3 -208 5 -244 6 -71
0 -106 16 -96 44 7 19 61 20 345 9z m204 -49 c-13 -23 -25 -1 -16 28 6 19 7
19 16 5 5 -10 5 -23 0 -33z m-1578 20 c30 -5 46 -12 46 -21 0 -27 30 -72 60
-90 28 -16 30 -21 30 -78 0 -79 -15 -129 -50 -168 l-28 -32 -8 30 c-11 47 -41
101 -67 122 -18 14 -25 32 -30 75 -3 31 -15 78 -26 103 -30 67 -24 72 73 59z
m-72 -801 c42 -38 11 -76 -90 -109 -44 -15 -58 -23 -41 -23 40 -1 110 27 140
55 35 34 47 15 23 -37 -16 -37 -16 -42 -1 -74 9 -18 30 -44 47 -56 16 -13 30
-32 30 -43 0 -37 -46 -120 -84 -154 -43 -37 -42 -56 0 -23 37 29 71 77 85 120
11 31 13 33 20 16 43 -111 -73 -283 -209 -308 l-33 -7 30 37 c53 64 40 133
-44 243 -64 84 -125 123 -196 128 -55 4 -63 2 -163 -46 -5 -3 0 9 12 26 34 47
99 73 198 80 75 4 90 2 125 -17 21 -12 39 -17 39 -11 0 6 -10 15 -22 20 -19 7
-14 9 27 10 28 1 61 6 75 10 39 12 -223 12 -295 -1 -33 -6 -79 -20 -100 -32
-38 -22 -51 -37 -108 -133 -35 -59 -50 -49 -72 49 -15 68 -36 107 -57 107 -5
0 0 -11 10 -25 11 -14 23 -45 27 -68 4 -23 15 -60 26 -83 l19 -41 -42 -70
c-31 -50 -51 -73 -73 -80 -16 -5 -38 -14 -49 -18 -17 -8 -17 -7 -1 25 22 42
17 139 -10 195 -30 61 -103 129 -165 152 l-54 20 35 11 c149 47 253 46 329 -4
44 -29 142 -45 154 -26 4 7 -11 11 -44 10 -59 0 -113 27 -118 60 -4 27 -9 26
56 2 40 -15 76 -20 155 -20 158 0 273 38 348 116 38 39 37 39 61 17z m105
-203 c7 -49 -6 -51 -41 -9 -28 32 -34 77 -14 97 16 16 48 -34 55 -88z m-1046
8 c120 -40 211 -174 194 -286 -8 -55 -30 -77 -86 -87 -24 -4 -47 -9 -51 -10
-5 -1 -15 -3 -23 -4 -21 -2 -55 -38 -55 -58 0 -13 7 -9 26 15 14 17 33 32 43
32 16 0 78 -84 114 -156 9 -17 32 -86 52 -153 26 -91 54 -156 107 -252 52 -95
72 -143 75 -177 6 -61 -8 -78 -81 -103 -33 -10 -102 -47 -154 -80 -102 -67
-150 -85 -246 -95 -53 -5 -64 -3 -86 15 -24 21 -25 21 -6 36 11 8 27 15 35 15
9 0 23 5 31 11 11 8 5 9 -25 4 -22 -4 -48 -14 -58 -23 -22 -19 -50 -6 -55 25
-2 15 13 29 64 59 37 21 106 76 154 121 96 91 145 166 134 208 -4 14 -47 65
-96 113 -51 49 -116 126 -150 177 -34 50 -96 126 -139 170 -89 93 -104 131
-75 192 20 42 206 245 256 279 39 27 53 29 101 12z m687 -72 c72 -38 192 -199
192 -258 0 -28 -26 -74 -52 -92 -12 -9 -43 -16 -68 -16 -74 0 -75 -13 -5 -83
80 -80 120 -164 179 -374 25 -90 55 -186 66 -215 11 -29 20 -53 20 -54 0 -1
-11 -13 -25 -28 -26 -28 -33 -56 -14 -56 5 0 8 4 5 9 -3 4 5 18 18 30 22 21
25 21 34 5 13 -24 5 -48 -44 -129 -23 -38 -49 -95 -57 -125 -21 -70 -61 -110
-152 -149 -63 -26 -76 -29 -130 -22 -70 9 -105 22 -125 46 -13 15 -12 19 9 36
13 11 17 19 10 19 -7 0 -22 -9 -34 -20 -21 -20 -23 -20 -45 -2 l-23 18 58 64
c70 79 265 367 265 392 0 55 -45 119 -152 215 -82 73 -130 133 -185 228 -23
39 -59 90 -80 115 -53 60 -63 81 -63 132 0 33 9 60 36 104 49 82 112 161 147
186 68 48 150 58 215 24z"/>
<path d="M1682 3066 c2 -27 8 -51 13 -53 13 -4 7 78 -7 92 -6 6 -8 -8 -6 -39z"/>
<path d="M1627 2856 c-9 -27 -17 -61 -16 -75 0 -17 7 -5 20 34 23 73 20 110
-4 41z"/>
<path d="M1910 2730 c-17 -18 -30 -37 -30 -42 0 -6 -11 -7 -27 -3 -23 5 -25 4
-14 -9 21 -25 37 -19 61 20 13 20 32 39 43 43 14 5 17 10 8 15 -7 5 -23 -5
-41 -24z"/>
<path d="M1417 2667 c-8 -22 5 -57 32 -81 11 -11 21 -25 21 -33 0 -7 5 -13 10
-13 17 0 11 17 -16 50 -15 17 -30 46 -33 63 -5 25 -8 28 -14 14z"/>
<path d="M1655 2611 c-44 -22 -71 -40 -60 -40 11 0 43 13 70 29 28 16 64 30
80 30 23 0 27 3 15 10 -21 13 -17 14 -105 -29z"/>
<path d="M2570 2541 c0 -5 4 -12 9 -15 4 -3 6 -17 3 -31 -2 -15 0 -25 7 -25 7
0 10 4 6 9 -3 5 2 17 11 26 18 18 18 17 -13 34 -14 7 -23 8 -23 2z"/>
<path d="M1610 2092 c0 -55 26 -75 108 -83 37 -4 81 -10 97 -14 23 -6 27 -5
19 5 -7 6 -49 16 -95 22 -100 12 -123 27 -116 75 3 18 2 33 -4 33 -5 0 -9 -17
-9 -38z"/>
<path d="M1527 2082 c-36 -37 -54 -86 -36 -97 5 -4 9 5 9 19 0 16 15 42 36 66
47 52 39 62 -9 12z"/>
<path d="M1715 2090 c22 -11 49 -20 61 -20 46 0 84 -23 125 -76 39 -48 59 -65
59 -48 0 11 -93 113 -109 120 -14 6 -41 13 -151 38 -15 4 -9 -2 15 -14z"/>
<path d="M2547 1970 c-15 -35 -25 -65 -23 -68 8 -7 57 99 54 116 -2 9 -15 -13
-31 -48z"/>
<path d="M1630 1981 c0 -6 9 -26 21 -46 22 -37 20 -65 -5 -65 -16 0 -31 -34
-21 -50 11 -17 23 -11 18 9 -3 13 2 23 16 30 27 15 27 54 0 97 -21 35 -29 41
-29 25z"/>
<path d="M2070 1964 c0 -19 -6 -34 -15 -38 -17 -6 -21 -36 -4 -36 5 0 8 4 4 9
-3 6 4 15 15 21 21 12 26 36 10 60 -7 11 -10 8 -10 -16z"/>
<path d="M1813 1945 c7 -14 15 -25 20 -25 10 0 9 8 -3 31 -16 28 -30 23 -17
-6z"/>
<path d="M1220 1933 c-19 -8 -30 -17 -23 -20 7 -2 21 0 32 6 11 6 32 11 48 11
22 0 25 2 13 10 -20 13 -29 12 -70 -7z"/>
<path d="M1959 1901 c7 -11 16 -21 21 -21 6 0 19 -9 30 -20 18 -18 20 -18 20
-2 0 9 -15 26 -33 37 -47 29 -50 29 -38 6z"/>
<path d="M1720 1891 c0 -6 15 -7 34 -4 50 8 104 -14 127 -51 14 -22 19 -26 19
-13 0 10 -13 32 -29 48 -26 26 -36 29 -90 29 -34 0 -61 -4 -61 -9z"/>
<path d="M2078 1865 c-4 -17 -18 -43 -32 -58 -16 -17 -20 -27 -11 -27 22 0 57
57 53 87 l-3 28 -7 -30z"/>
<path d="M2363 1863 c-26 -10 -12 -18 32 -18 48 -1 59 9 23 19 -26 7 -38 7
-55 -1z"/>
<path d="M1967 1833 c-11 -10 -8 -53 3 -53 6 0 10 14 10 30 0 31 -2 35 -13 23z"/>
<path d="M457 3120 c-91 -83 -136 -219 -137 -418 0 -192 57 -354 147 -414 48
-31 48 -20 -1 23 -88 78 -128 198 -128 389 0 196 43 331 129 410 23 22 47 40
53 40 5 0 10 5 10 10 0 20 -19 9 -73 -40z"/>
<path d="M3260 3075 c-202 -149 -230 -651 -48 -851 28 -29 57 -54 65 -54 9 0
-3 16 -28 39 -93 81 -139 219 -139 411 0 196 51 345 150 434 56 49 56 62 0 21z"/>
<path d="M1316 1542 c-2 -4 -12 -36 -21 -72 -9 -36 -23 -76 -32 -88 -8 -13
-12 -26 -9 -30 11 -10 35 32 47 83 6 28 17 65 25 83 7 17 9 32 4 32 -5 0 -11
-3 -14 -8z"/>
<path d="M1380 1378 c-27 -36 -44 -78 -22 -52 38 43 72 94 63 94 -6 0 -24 -19
-41 -42z"/>
<path d="M1050 1403 c0 -17 69 -70 99 -76 14 -3 30 -1 36 4 5 5 0 9 -14 9 -28
0 -59 15 -93 48 -16 14 -28 21 -28 15z"/>
<path d="M1110 1220 c0 -46 3 -61 10 -50 5 8 10 31 10 50 0 19 -5 42 -10 50
-7 11 -10 -4 -10 -50z"/>
<path d="M1240 1099 c0 -32 87 -172 135 -218 77 -73 87 -63 12 12 -46 44 -75
84 -101 140 -36 75 -46 89 -46 66z"/>
<path d="M1590 635 c0 -3 9 -24 20 -46 16 -30 18 -44 10 -58 -14 -28 -12 -35
5 -21 21 17 19 57 -6 96 -19 32 -29 41 -29 29z"/>
<path d="M1397 484 c-20 -31 -37 -64 -36 -73 0 -13 2 -13 12 3 7 10 27 41 45
68 34 54 36 58 24 58 -4 0 -24 -25 -45 -56z"/>
<path d="M1132 358 c-15 -15 -16 -38 -2 -38 6 0 10 5 10 11 0 7 8 18 18 25 14
11 15 13 2 14 -9 0 -21 -5 -28 -12z"/>
<path d="M1810 1451 c0 -5 8 -11 18 -13 10 -3 23 -22 30 -45 7 -23 19 -46 27
-53 16 -13 21 0 6 16 -5 5 -14 26 -21 47 -12 40 -60 78 -60 48z"/>
<path d="M2124 1300 c-6 -6 -43 -17 -83 -24 -48 -9 -81 -22 -97 -37 -35 -33
-30 -46 6 -15 17 14 47 28 68 31 65 10 109 25 122 40 14 17 0 21 -16 5z"/>
<path d="M1835 1267 c4 -13 0 -41 -9 -61 -17 -40 -6 -50 12 -11 15 32 15 82 2
90 -7 4 -9 -2 -5 -18z"/>
<path d="M1750 1127 c0 -2 20 -18 45 -36 57 -41 113 -114 160 -210 20 -40 39
-71 42 -67 10 10 -63 149 -106 204 -49 62 -141 133 -141 109z"/>
<path d="M2131 380 c-7 -25 -18 -67 -26 -95 -13 -45 -13 -66 0 -53 10 9 47
168 42 181 -2 6 -10 -8 -16 -33z"/>
<path d="M1926 151 c14 -13 122 -51 144 -51 11 0 20 5 20 10 0 6 -13 10 -29
10 -16 0 -48 9 -72 20 -46 20 -80 27 -63 11z"/>
<path d="M1926 84 c-4 -10 -1 -14 6 -12 15 5 23 28 10 28 -5 0 -13 -7 -16 -16z"/>
</g>
</svg>
