<?xml version="1.0" standalone="no"?>
<!DOCTYPE svg PUBLIC "-//W3C//DTD SVG 20010904//EN"
 "http://www.w3.org/TR/2001/REC-SVG-20010904/DTD/svg10.dtd">
<svg version="1.0" xmlns="http://www.w3.org/2000/svg"
 width="375.000000pt" height="442.000000pt" viewBox="0 0 375.000000 442.000000"
 preserveAspectRatio="xMidYMid meet">

<g transform="translate(0.000000,442.000000) scale(0.100000,-0.100000)"
fill="#000000" stroke="none">
<path d="M1791 4288 c-39 -19 -101 -87 -101 -110 0 -5 -14 -44 -31 -86 -25
-63 -32 -96 -36 -180 -5 -94 -8 -103 -27 -107 -12 -3 -144 -25 -295 -51 l-274
-45 -31 29 c-62 59 -103 66 -169 28 -23 -13 -58 -27 -77 -31 -53 -12 -120 -43
-120 -57 0 -7 -4 -18 -8 -25 -4 -6 -113 -30 -242 -52 -129 -22 -246 -44 -260
-50 -25 -10 -24 -10 7 -10 18 -1 143 17 279 39 187 31 250 38 260 29 29 -24
13 -36 -63 -47 -121 -19 -486 -83 -502 -88 -9 -3 -11 -8 -5 -13 5 -5 129 12
294 40 157 27 290 47 296 45 6 -3 15 -22 18 -43 4 -21 18 -56 31 -78 35 -61
53 -137 65 -270 21 -239 49 -330 125 -415 28 -30 59 -67 68 -82 25 -40 87 -39
143 0 21 16 59 36 84 45 78 29 181 108 234 177 27 36 51 66 55 67 12 4 70
-104 81 -150 5 -25 22 -72 37 -104 23 -50 27 -71 28 -153 0 -82 -4 -103 -27
-155 -21 -48 -28 -85 -36 -190 -9 -108 -16 -147 -46 -230 -20 -55 -43 -126
-52 -158 -29 -111 -36 -410 -16 -685 9 -129 13 -148 37 -183 34 -52 79 -79
132 -79 27 0 64 -11 100 -29 92 -46 183 -65 316 -65 115 -1 118 -1 113 -22 -3
-12 1 -41 9 -63 8 -23 20 -79 26 -126 11 -77 10 -89 -9 -142 -11 -32 -23 -70
-27 -86 -7 -33 11 -182 28 -235 12 -36 14 -37 72 -45 69 -10 149 10 203 51 27
21 32 31 32 67 0 74 10 105 41 121 16 8 53 33 83 55 47 35 59 51 81 108 29 76
31 118 10 187 -20 65 -19 96 6 190 20 79 19 146 -2 186 -5 10 -28 27 -51 39
-34 17 -52 20 -99 15 l-58 -7 -17 58 c-15 51 -16 92 -10 337 3 153 10 286 15
295 5 10 1 51 -10 106 -10 50 -23 153 -29 230 -13 175 -29 245 -80 341 -22 42
-40 87 -40 100 0 14 -7 39 -16 55 -17 34 -13 66 18 136 11 25 24 74 29 110 8
55 17 75 56 127 56 75 93 150 93 194 0 17 2 32 5 32 3 0 31 -17 61 -37 56 -37
59 -38 178 -43 66 -4 131 -12 143 -18 58 -32 107 -2 152 93 62 134 66 263 12
468 -23 89 -31 140 -31 207 0 49 3 91 8 93 4 3 144 28 312 57 289 49 376 69
305 70 -27 0 -546 -82 -603 -95 -21 -5 -23 -2 -20 22 l3 27 314 53 c173 29
317 55 319 58 19 19 -44 12 -319 -34 l-311 -51 -45 40 c-25 22 -53 40 -63 40
-37 0 -245 -42 -257 -52 -7 -6 -16 -28 -19 -49 -4 -21 -13 -40 -23 -44 -19 -8
-475 -84 -479 -81 -1 2 5 31 14 65 27 109 -4 205 -88 272 -88 69 -221 90 -307
47z m231 -29 c105 -54 148 -114 148 -208 0 -84 -19 -130 -75 -185 -27 -27 -42
-46 -32 -43 12 5 17 1 17 -11 0 -9 9 -35 19 -57 15 -34 30 -46 103 -83 79 -41
87 -43 124 -33 96 27 178 2 234 -70 41 -52 52 -61 63 -50 11 11 112 -6 147
-24 52 -27 96 -104 53 -91 -10 3 -36 8 -58 11 -37 6 -39 5 -21 -9 19 -16 54
-21 106 -17 49 4 54 10 27 35 -39 36 -43 70 -17 125 21 47 22 49 5 114 -9 37
-17 82 -18 100 -2 30 -6 33 -58 50 -41 13 -59 24 -67 43 -16 34 -17 34 27 34
45 0 57 19 46 70 -9 42 -25 52 -63 38 -39 -15 -47 -7 -36 34 11 36 60 61 74
37 7 -10 14 -11 36 0 24 11 30 10 41 -5 7 -10 16 -15 19 -11 9 9 -13 35 -34
40 -9 2 2 2 26 0 25 -3 42 0 42 6 0 19 56 12 91 -12 l34 -23 5 -184 c5 -158
10 -201 34 -295 38 -149 34 -253 -13 -370 -18 -44 -40 -88 -48 -97 -18 -20
-51 -23 -85 -8 -13 6 -57 17 -98 24 -41 8 -86 17 -100 21 l-25 7 24 -21 c23
-21 23 -21 2 -21 -98 0 -258 154 -222 212 16 27 3 38 -15 14 -18 -25 -18 -42
2 -100 27 -78 16 -146 -34 -214 -91 -124 -94 -129 -102 -199 -5 -37 -16 -88
-25 -113 -9 -25 -20 -74 -23 -110 -7 -64 -8 -65 -55 -97 -27 -18 -86 -45 -130
-59 -68 -22 -102 -27 -197 -28 -118 -1 -165 8 -207 42 -17 13 -24 35 -33 100
-6 45 -22 112 -35 147 -36 94 -33 107 14 61 22 -21 43 -55 51 -79 17 -59 52
-139 58 -133 2 3 -8 46 -24 97 -27 85 -34 96 -109 177 -74 80 -116 145 -102
158 3 3 20 -2 39 -12 18 -10 54 -17 79 -17 48 1 139 35 139 52 0 11 -8 8 -82
-23 -46 -20 -86 -12 -128 23 l-31 26 21 60 c18 54 27 64 80 100 72 48 78 64
13 31 -27 -13 -81 -33 -120 -45 -40 -12 -73 -27 -73 -33 0 -6 9 -8 20 -4 68
21 64 23 57 -19 -7 -43 -75 -180 -115 -233 -15 -19 -58 -61 -96 -93 -71 -60
-108 -79 -66 -34 13 14 21 28 18 31 -7 6 -78 -45 -159 -113 -56 -48 -81 -53
-107 -21 -9 12 -38 45 -63 72 -26 28 -53 65 -62 81 -33 67 -58 174 -71 318 -8
84 -22 172 -31 197 -8 24 -14 52 -13 61 2 9 -7 25 -20 35 -14 12 -29 45 -41
87 -13 48 -29 79 -51 102 -28 29 -31 37 -20 50 21 26 57 17 100 -23 31 -31 40
-35 40 -21 0 11 -17 30 -40 45 -41 27 -44 44 -9 44 26 0 116 -46 122 -62 2 -7
7 -10 11 -7 14 13 -7 38 -46 54 -26 10 -37 20 -31 26 14 14 104 -2 125 -23 17
-17 18 -17 18 2 0 19 -10 24 -63 32 -30 5 -19 23 16 26 24 2 44 -5 74 -27 38
-28 41 -33 48 -96 6 -57 9 -64 19 -49 16 22 36 10 36 -21 0 -16 -14 -33 -50
-59 -30 -21 -52 -46 -56 -62 -10 -37 20 -123 61 -181 79 -108 77 -103 71 -168
l-6 -60 45 76 c42 74 78 107 131 123 19 6 21 3 16 -19 -2 -14 0 -25 6 -25 6 0
16 33 22 73 16 94 33 129 89 179 55 48 88 63 161 73 41 5 67 16 105 45 28 21
74 50 102 64 32 16 58 37 68 56 22 43 18 60 -6 23 -12 -18 -25 -33 -30 -33 -4
0 -14 18 -20 40 -12 40 -16 43 -77 55 -55 11 -66 40 -58 152 5 75 13 111 36
164 17 37 30 71 30 76 0 23 54 83 92 102 36 19 54 22 110 17 40 -3 83 -13 110
-27z m755 -304 c3 -9 2 -19 -1 -23 -4 -3 -157 -32 -341 -63 -258 -43 -335 -53
-335 -43 0 34 44 45 465 118 172 29 204 31 212 11z m-72 -112 c15 -27 31 -40
62 -51 46 -15 46 -15 81 -152 12 -46 -29 -136 -56 -124 -34 14 -117 34 -145
34 -21 0 -41 14 -80 54 -65 66 -114 81 -222 64 l-70 -11 -77 49 c-68 43 -96
69 -85 80 4 5 517 92 547 93 19 1 30 -8 45 -36z m-1035 -80 c49 -13 43 -14
-323 -77 l-318 -53 3 26 3 26 270 47 c266 46 295 48 365 31z m98 -72 c10 -27
8 -30 -20 -42 -17 -7 -53 -28 -80 -46 -28 -20 -75 -40 -114 -49 -91 -21 -130
-43 -190 -106 -47 -49 -63 -79 -78 -149 -4 -18 -14 -29 -31 -33 -14 -4 -48
-28 -76 -55 -48 -46 -51 -47 -59 -27 -4 11 -26 44 -49 71 -51 61 -91 139 -91
177 0 20 10 35 36 55 65 49 74 62 74 97 l0 34 68 12 c37 6 168 28 292 49 124
22 244 39 267 40 37 1 42 -2 51 -28z m562 -1163 c-1 -29 -27 -69 -59 -93 -22
-15 -29 -25 -19 -25 9 0 30 11 47 25 l30 26 24 -33 c13 -18 29 -42 35 -53 18
-35 41 -166 62 -347 11 -95 22 -194 26 -219 l6 -45 -68 -47 c-108 -74 -259
-116 -312 -88 -20 11 -22 20 -22 103 l0 90 54 59 c49 53 74 94 64 104 -2 2
-37 -28 -78 -66 l-75 -71 -11 -120 c-8 -81 -16 -123 -25 -129 -33 -21 -101
-32 -199 -32 -122 -1 -157 12 -253 90 -68 55 -68 38 1 248 36 110 46 158 49
225 6 135 12 146 35 72 18 -59 18 -65 3 -82 -10 -12 -18 -42 -20 -87 -3 -45
-16 -102 -40 -166 -34 -96 -44 -147 -26 -147 5 0 12 21 16 47 4 25 17 70 30
100 25 56 45 144 45 199 0 17 7 37 15 44 8 7 15 23 15 35 0 12 -7 39 -15 58
-19 46 -19 80 1 119 12 23 13 29 2 26 -7 -2 -21 -20 -30 -39 -15 -29 -18 -31
-18 -11 0 23 26 82 36 82 3 0 17 -9 31 -20 31 -24 105 -46 184 -55 42 -5 76
-1 137 15 45 12 85 26 88 31 8 13 -4 11 -102 -12 -65 -15 -103 -19 -144 -14
-102 12 -180 60 -180 111 l0 25 28 -19 c48 -34 103 -46 207 -45 80 0 117 6
185 28 96 31 190 75 209 99 16 19 31 21 31 4z m130 -1036 c0 -115 3 -250 7
-301 l6 -92 -37 22 c-30 17 -48 21 -97 17 -40 -3 -65 -10 -77 -22 -16 -18 -16
-18 8 -11 14 4 50 10 80 12 52 4 57 3 89 -31 23 -23 32 -40 27 -52 -6 -15 -18
-16 -99 -11 -162 9 -210 48 -214 170 -1 37 -9 89 -17 115 -20 62 -66 252 -66
275 0 15 7 16 53 11 33 -4 77 0 120 10 66 16 180 66 192 86 20 32 25 -7 25
-198z m-883 112 c79 -60 102 -66 240 -62 68 1 123 1 123 -2 -1 -21 -69 -116
-119 -164 -71 -68 -81 -95 -16 -42 25 21 45 35 45 31 0 -3 -5 -39 -11 -78 -8
-52 -18 -79 -34 -97 l-24 -25 84 4 c109 4 164 -14 263 -88 97 -72 120 -82 207
-88 53 -4 91 0 152 16 98 25 134 26 173 6 56 -29 63 -80 30 -210 l-20 -79 20
-78 c11 -43 20 -93 20 -112 0 -54 -37 -144 -63 -152 -12 -4 -29 -16 -38 -28
-9 -11 -31 -29 -48 -39 l-31 -18 0 30 c0 16 -14 66 -30 111 -28 76 -29 86 -20
143 15 91 12 147 -9 194 -34 73 -122 96 -192 49 -46 -31 -187 -49 -282 -36
-82 12 -213 54 -252 80 -16 12 -43 28 -59 36 -26 15 -28 15 -23 0 5 -13 -1
-16 -31 -16 -30 0 -45 7 -71 34 -38 39 -50 84 -51 181 0 39 -5 135 -12 215 -9
114 -8 164 1 233 7 48 17 87 22 87 5 0 30 -16 56 -36z m500 -196 c58 -240 65
-324 24 -274 -21 25 -110 57 -177 63 l-66 6 7 71 c7 78 16 101 74 196 57 92
70 110 84 110 8 0 28 -65 54 -172z m327 -598 c46 -17 58 -58 55 -193 -2 -104
1 -133 21 -196 18 -59 21 -84 15 -130 -4 -31 -8 -77 -9 -102 -1 -39 -6 -50
-32 -72 -18 -15 -40 -27 -50 -27 -11 -1 -30 -7 -44 -15 -38 -21 -43 -18 -37
20 3 21 0 49 -8 68 l-14 32 -1 -51 c0 -55 -15 -78 -47 -72 -28 5 -45 73 -47
188 -1 102 0 107 31 155 34 54 58 126 29 92 -13 -17 -15 -15 -21 30 -6 41 -16
85 -42 191 -3 12 1 29 8 38 12 14 14 14 19 0 4 -13 13 -9 49 19 45 36 79 43
125 25z"/>
<path d="M1850 4031 c21 -6 25 -13 28 -53 4 -54 -17 -83 -53 -74 -19 5 -24 1
-28 -24 -5 -21 -16 -33 -40 -44 -19 -8 -38 -19 -41 -25 -7 -11 61 15 82 31 6
6 12 19 12 29 0 14 7 19 29 19 37 0 61 31 61 78 0 49 -16 72 -48 71 l-27 -1
25 -7z"/>
<path d="M2870 3952 c0 -22 5 -44 10 -47 7 -4 8 8 4 37 -9 57 -14 61 -14 10z"/>
<path d="M2094 3615 c-10 -39 0 -48 12 -10 6 19 7 35 3 35 -5 0 -11 -11 -15
-25z"/>
<path d="M2365 3619 c-11 -17 1 -21 29 -8 20 10 32 10 52 0 29 -13 47 -6 24 9
-21 13 -97 12 -105 -1z"/>
<path d="M1925 3598 c44 -16 73 -46 108 -113 16 -33 32 -55 34 -48 2 6 -11 42
-31 80 -36 72 -63 94 -114 92 l-27 -1 30 -10z"/>
<path d="M2330 3524 c0 -42 -4 -51 -41 -85 -23 -21 -38 -42 -35 -47 3 -5 26 9
51 32 41 38 45 46 45 88 0 26 -4 50 -10 53 -6 4 -10 -12 -10 -41z"/>
<path d="M2995 3480 c-4 -25 -12 -52 -18 -62 -16 -24 0 -36 18 -12 20 26 29
79 17 100 -8 14 -11 9 -17 -26z"/>
<path d="M1624 3465 c11 -8 23 -15 26 -15 4 0 12 -11 18 -25 11 -25 15 -26 70
-20 55 7 58 6 85 -24 17 -20 32 -29 40 -24 9 5 7 9 -5 11 -9 2 -20 12 -23 23
-11 35 -46 50 -88 38 -35 -9 -41 -8 -73 20 -19 17 -42 31 -52 31 -15 -1 -15
-2 2 -15z"/>
<path d="M1525 3441 c-32 -14 -57 -47 -53 -73 4 -21 5 -20 20 13 11 25 26 40
47 47 31 11 41 23 19 21 -7 0 -22 -4 -33 -8z"/>
<path d="M2564 3409 c-13 -14 -25 -18 -42 -14 -17 4 -23 2 -20 -7 3 -7 11 -14
19 -16 17 -3 79 34 79 48 0 16 -15 12 -36 -11z"/>
<path d="M2093 3395 c3 -11 13 -40 22 -65 12 -32 15 -61 11 -100 -15 -139 -18
-230 -9 -230 6 0 13 37 16 83 4 45 9 106 13 135 7 59 -7 124 -38 168 -14 20
-18 23 -15 9z"/>
<path d="M2352 3400 c9 -6 26 -26 38 -45 26 -42 47 -47 25 -6 -20 39 -43 61
-63 61 -16 -1 -16 -1 0 -10z"/>
<path d="M1905 3353 c32 -8 39 -20 36 -67 -3 -62 15 -66 23 -5 8 61 -3 79 -48
78 -21 -1 -24 -3 -11 -6z"/>
<path d="M2245 3333 c4 -10 11 -45 16 -79 9 -63 1 -108 -24 -148 -8 -11 -19
-50 -25 -85 -8 -45 -19 -73 -37 -91 -14 -14 -25 -34 -25 -44 0 -13 10 -6 35
24 36 43 39 52 50 130 3 24 13 53 22 63 32 35 24 247 -9 247 -6 0 -7 -8 -3
-17z"/>
<path d="M2726 3324 c-9 -8 -16 -26 -16 -39 0 -14 -9 -29 -21 -35 -26 -14 -18
-24 11 -15 12 4 28 22 36 41 8 19 19 34 25 34 6 0 44 -32 84 -71 60 -58 78
-70 101 -67 15 2 29 9 32 16 3 11 0 12 -18 2 -20 -11 -29 -5 -105 69 -45 45
-90 81 -98 81 -9 0 -23 -7 -31 -16z"/>
<path d="M1850 3305 c0 -4 11 -21 24 -38 34 -46 51 -108 37 -136 -7 -13 -8
-21 -2 -21 6 0 15 9 21 20 11 20 -4 92 -29 139 -11 20 -51 48 -51 36z"/>
<path d="M934 3138 c8 -71 33 -121 62 -127 18 -3 18 -2 2 16 -27 29 -48 88
-48 133 0 23 -5 40 -11 40 -8 0 -10 -19 -5 -62z"/>
<path d="M2449 3158 c-12 -29 -19 -33 -58 -36 -34 -3 -49 2 -67 19 -31 29 -43
18 -12 -13 19 -19 33 -23 81 -22 32 1 60 4 63 7 10 9 22 77 15 77 -4 0 -14
-15 -22 -32z"/>
<path d="M1650 3163 c0 -22 54 -76 95 -94 46 -21 93 -24 130 -7 28 12 35 34 8
23 -59 -25 -134 -4 -195 54 -21 19 -38 30 -38 24z"/>
<path d="M1220 3115 c-18 -19 -52 -44 -74 -56 l-41 -21 35 6 c37 7 93 47 118
84 22 34 0 26 -38 -13z"/>
<path d="M1890 3029 c0 -6 32 -42 70 -81 39 -39 70 -75 70 -79 0 -5 5 -9 10
-9 24 0 6 32 -40 72 -28 24 -60 58 -71 76 -20 32 -39 42 -39 21z"/>
<path d="M1426 3001 c-11 -17 -99 -71 -117 -71 -11 0 -19 9 -21 23 -5 35 -42
24 -119 -36 -63 -47 -81 -67 -61 -67 4 0 36 22 72 50 36 27 68 49 73 50 4 0 7
-11 7 -24 0 -35 16 -40 64 -22 41 16 142 106 119 106 -7 0 -14 -4 -17 -9z"/>
<path d="M1803 2914 c-18 -19 -33 -35 -33 -38 0 -13 44 10 57 30 25 38 10 43
-24 8z"/>
<path d="M1737 2825 c27 -34 43 -44 43 -27 0 10 -53 62 -63 62 -5 0 5 -16 20
-35z"/>
<path d="M2200 2811 c0 -6 12 -23 26 -36 28 -26 54 -33 54 -15 0 6 -5 10 -12
10 -7 0 -25 12 -40 27 -15 15 -28 21 -28 14z"/>
<path d="M1964 2755 c-4 -11 -23 -43 -42 -72 -21 -32 -32 -59 -28 -69 4 -11
18 7 47 61 22 42 38 82 36 88 -3 7 -8 4 -13 -8z"/>
<path d="M2087 2723 c-13 -80 -19 -182 -13 -207 12 -50 21 -25 21 61 0 49 3
109 7 136 4 26 4 47 -1 47 -5 0 -11 -17 -14 -37z"/>
<path d="M2240 2374 c-90 -53 -174 -81 -275 -90 -41 -4 -78 -11 -81 -15 -8
-14 84 -10 161 6 100 21 293 120 274 140 -3 2 -38 -16 -79 -41z"/>
<path d="M1800 2147 c0 -22 93 -117 115 -117 26 0 17 16 -26 46 -22 15 -51 42
-65 58 -18 24 -24 27 -24 13z"/>
<path d="M2364 1219 c-4 -7 -25 -9 -55 -7 -60 6 -64 -6 -8 -20 45 -12 89 1 89
25 0 16 -16 17 -26 2z"/>
<path d="M1680 1271 c-14 -28 -12 -104 3 -126 12 -15 14 -7 13 64 -1 44 -2 81
-3 81 -1 0 -7 -9 -13 -19z"/>
<path d="M1832 1018 c3 -7 27 -24 53 -38 39 -20 64 -25 119 -25 40 0 71 4 73
11 2 7 -22 10 -70 10 -64 -1 -79 3 -115 27 -45 29 -66 34 -60 15z"/>
<path d="M2508 957 c-21 -6 -38 -14 -38 -19 0 -10 38 -9 65 1 24 10 45 -4 45
-31 0 -10 5 -16 10 -13 16 10 12 40 -8 58 -21 19 -21 19 -74 4z"/>
<path d="M2600 449 c-12 -22 -6 -54 9 -45 11 7 20 66 10 66 -5 0 -13 -9 -19
-21z"/>
<path d="M2335 189 c-4 -5 -5 -9 -3 -10 58 -10 118 -6 118 9 0 11 -109 12
-115 1z"/>
</g>
</svg>
