<?xml version="1.0" standalone="no"?>
<!DOCTYPE svg PUBLIC "-//W3C//DTD SVG 20010904//EN"
 "http://www.w3.org/TR/2001/REC-SVG-20010904/DTD/svg10.dtd">
<svg version="1.0" xmlns="http://www.w3.org/2000/svg"
 width="502.000000pt" height="455.000000pt" viewBox="0 0 502.000000 455.000000"
 preserveAspectRatio="xMidYMid meet">

<g transform="translate(0.000000,455.000000) scale(0.100000,-0.100000)"
fill="#000000" stroke="none">
<path d="M4198 4511 c-15 -5 -42 -18 -60 -29 -20 -12 -61 -23 -103 -27 -91 -9
-142 -39 -195 -112 -56 -78 -88 -186 -96 -322 l-7 -108 -119 -28 c-113 -26
-120 -26 -138 -10 -16 14 -29 16 -67 11 -27 -4 -79 -10 -118 -15 -90 -10 -131
-31 -140 -71 -4 -19 -14 -32 -28 -35 -12 -3 -186 -45 -387 -94 -201 -49 -379
-92 -396 -95 -29 -7 -32 -5 -48 38 -31 82 -155 142 -275 134 -108 -8 -175 -54
-211 -146 -12 -31 -15 -33 -49 -27 -31 5 -40 2 -65 -24 -18 -18 -51 -37 -82
-46 -56 -16 -64 -27 -64 -85 0 -45 15 -38 -185 -86 -88 -21 -110 -23 -114 -13
-2 8 -24 53 -49 101 -111 218 -280 315 -424 245 -45 -22 -62 -25 -114 -20 -78
7 -125 -8 -182 -60 -86 -80 -123 -184 -129 -368 l-5 -135 -122 -28 c-209 -48
-196 -42 -196 -80 0 -19 8 -40 18 -48 15 -15 31 -13 170 22 104 25 155 34 157
26 30 -98 43 -132 76 -196 60 -117 149 -214 223 -245 55 -23 162 -19 214 9 38
19 50 21 91 12 125 -25 231 59 292 230 25 70 37 277 21 364 -6 30 -9 57 -7 58
2 2 53 16 114 32 l110 27 6 -39 c4 -22 20 -54 36 -73 l29 -33 0 -156 0 -156
39 -78 c50 -99 162 -212 210 -212 45 0 74 17 96 58 27 49 125 129 136 110 5
-7 9 -109 9 -226 0 -161 -3 -214 -13 -217 -6 -2 -93 -30 -192 -62 l-180 -58
-3 -60 c-3 -59 -2 -61 41 -103 l44 -44 389 128 c214 70 394 129 400 131 8 3
16 -22 24 -69 15 -87 39 -140 72 -155 13 -6 45 -46 71 -90 41 -70 47 -88 48
-139 0 -33 4 -79 7 -104 6 -39 1 -61 -40 -165 -77 -196 -81 -271 -30 -530 18
-95 26 -169 28 -275 3 -207 17 -327 41 -375 11 -22 26 -66 32 -97 14 -65 52
-107 118 -129 64 -21 208 -8 237 21 6 6 25 10 42 10 36 0 94 42 94 67 0 8 -9
27 -21 41 -11 15 -43 56 -70 91 -27 35 -58 80 -69 100 -10 21 -45 70 -78 110
-66 81 -72 104 -72 275 l0 81 398 156 397 155 3 66 3 65 -60 36 -59 35 -201
-79 c-111 -43 -206 -79 -211 -79 -7 0 -9 99 -8 291 l3 291 180 63 c341 117
357 126 380 199 5 18 9 16 43 -15 20 -20 57 -48 80 -63 l44 -27 -6 -57 c-22
-229 -14 -301 48 -413 69 -126 86 -326 37 -447 -34 -85 -43 -140 -30 -179 19
-58 43 -66 166 -58 l108 6 95 -47 c145 -72 309 -95 376 -53 80 49 43 111 -90
155 -72 24 -90 35 -156 99 -41 39 -99 91 -128 114 -29 24 -58 53 -65 65 -8 15
-14 136 -20 421 -4 220 -8 452 -10 515 -2 105 -5 120 -32 175 -28 54 -36 63
-108 102 -43 23 -102 63 -130 89 -48 43 -151 99 -322 176 -33 14 -116 43 -183
63 -134 40 -189 62 -239 99 -18 13 -51 26 -74 30 -34 5 -53 18 -98 64 -31 31
-67 72 -80 91 -22 30 -22 33 -5 27 10 -3 58 -15 105 -26 93 -22 236 -23 275
-2 28 15 79 264 70 349 -3 32 -9 106 -12 165 -6 101 -5 109 17 140 17 23 25
52 29 97 l5 65 85 21 c158 40 145 41 158 -16 40 -170 147 -335 254 -390 32
-17 61 -23 114 -23 61 -1 76 3 112 27 30 20 54 27 88 27 112 0 193 56 248 173
50 106 59 156 60 311 l1 139 35 12 c19 7 97 27 173 45 l137 33 0 32 c0 61 -14
63 -184 22 -164 -40 -196 -44 -196 -24 0 19 -66 152 -99 200 -42 62 -98 114
-146 137 -49 24 -128 33 -167 21z m159 -52 c122 -58 232 -271 253 -486 21
-226 -39 -426 -150 -499 -36 -24 -147 -46 -139 -28 2 5 18 36 36 70 50 96 66
172 66 309 0 132 -15 209 -63 332 -34 90 -116 203 -177 248 -23 16 -42 33 -42
37 -1 10 37 30 74 39 40 10 91 2 142 -22z m-231 -55 c53 -25 148 -135 188
-216 93 -190 102 -487 20 -652 -135 -272 -410 -168 -523 198 -11 37 -21 74
-21 81 0 8 35 21 88 34 186 46 192 49 192 79 0 16 -6 36 -13 46 -12 16 -19 16
-134 -13 -67 -17 -129 -31 -139 -31 -15 0 -16 9 -9 91 14 190 72 319 170 380
38 24 133 25 181 3z m841 -230 c4 -10 -1 -22 -11 -30 -17 -12 -315 -89 -321
-82 -1 2 -6 13 -9 25 -8 25 -19 20 189 72 143 35 144 36 152 15z m-919 -240
c3 -21 -13 -26 -265 -87 -147 -36 -269 -65 -270 -64 0 1 -3 13 -5 27 -3 25 0
26 237 87 258 66 298 71 303 37z m-602 -72 c18 -12 34 -49 34 -80 0 -41 -49
-82 -96 -82 -31 0 -34 2 -24 19 14 27 13 61 -3 67 -7 2 -41 -2 -76 -10 -68
-16 -111 -9 -111 19 0 17 34 41 72 50 20 5 35 1 55 -15 25 -19 28 -20 31 -5 6
29 90 56 118 37z m-96 -112 c0 -12 -13 -26 -36 -38 l-37 -19 44 -7 c56 -9 69
-21 69 -63 0 -20 4 -32 10 -28 6 3 10 24 10 45 0 34 4 42 30 55 16 8 33 22 38
32 9 14 10 14 17 -6 11 -36 -2 -82 -40 -135 -21 -30 -35 -61 -35 -80 0 -32 15
-26 22 9 5 25 22 -200 21 -275 0 -30 -8 -80 -16 -110 -9 -30 -18 -76 -22 -102
-4 -33 -13 -52 -28 -63 -32 -23 -43 -18 -19 8 32 34 27 42 -10 16 -50 -36
-131 -37 -266 -4 -105 26 -112 30 -122 58 -5 16 -10 43 -10 58 l0 29 52 -40
c48 -36 115 -60 169 -60 33 0 89 28 89 44 0 13 -4 12 -21 -5 -17 -17 -27 -19
-67 -13 -65 9 -124 30 -177 62 -35 21 -46 34 -51 62 -8 45 -46 112 -81 141
-16 14 -33 42 -39 67 -11 40 -10 42 11 42 48 0 88 -24 130 -78 40 -51 42 -57
27 -69 -14 -11 -6 -12 54 -7 99 9 152 -15 191 -85 15 -28 31 -51 35 -51 16 0
-25 87 -54 117 l-32 33 32 61 c19 37 32 77 32 100 0 20 3 45 7 55 6 16 7 16
14 -2 6 -15 8 -12 8 13 1 29 -4 35 -50 58 -50 26 -86 76 -71 100 3 5 9 -1 13
-15 8 -30 17 -13 21 40 2 27 8 36 28 41 14 4 39 12 55 17 46 15 55 14 55 -8z
m-160 -25 c0 -14 -1 -25 -3 -25 -2 0 -93 -22 -203 -49 -320 -80 -594 -142
-664 -152 -35 -5 -118 -27 -183 -49 -66 -22 -137 -43 -158 -46 -38 -6 -39 -6
-39 22 l0 29 348 85 c191 46 462 112 602 147 140 34 265 62 278 62 17 1 22 -5
22 -24z m-1012 -36 c40 -20 68 -42 82 -64 35 -57 27 -67 -80 -92 -52 -12 -101
-22 -107 -23 -18 0 19 95 48 126 13 13 18 24 13 24 -20 0 -35 -18 -71 -85 -41
-75 -63 -91 -136 -101 l-46 -7 -11 42 c-6 22 -14 41 -18 41 -4 0 -13 4 -20 9
-11 7 -11 14 3 42 50 98 85 119 196 119 76 0 93 -4 147 -31z m989 -69 c18 -42
27 -51 53 -57 l32 -6 -4 -77 c-4 -66 -9 -84 -39 -131 l-34 -54 -56 3 c-56 3
-58 4 -109 63 -58 67 -88 85 -160 99 -28 5 -67 22 -87 37 -28 21 -49 28 -102
32 l-66 5 270 67 c149 37 272 68 276 68 3 1 15 -22 26 -49z m-2212 23 c75 -25
160 -116 218 -233 73 -150 91 -227 91 -405 1 -131 -2 -157 -21 -208 -53 -140
-124 -209 -218 -211 -29 0 -57 2 -60 6 -3 3 10 36 30 74 136 260 45 718 -181
911 l-57 48 39 17 c49 22 97 22 159 1z m-230 -47 c101 -47 205 -188 261 -356
28 -81 29 -93 29 -270 l0 -185 -34 -73 c-22 -47 -51 -88 -82 -117 -47 -44 -50
-45 -115 -45 -40 0 -79 6 -100 16 -53 25 -127 97 -173 167 -40 62 -101 209
-101 245 0 13 25 23 117 47 108 28 118 33 127 58 8 23 6 31 -11 49 l-21 21
-110 -28 c-61 -15 -116 -24 -121 -20 -16 9 -13 158 4 238 47 224 178 324 330
253z m1103 -57 c15 -6 22 -17 22 -34 0 -30 -11 -31 -69 -5 -51 23 -57 24 -43
8 5 -7 13 -27 16 -44 4 -18 16 -40 27 -50 26 -23 24 -28 -16 -47 -47 -23 -57
-22 -86 9 -28 30 -74 56 -83 47 -3 -3 -1 -12 4 -18 8 -9 5 -14 -10 -18 -17 -4
-20 0 -20 27 0 43 17 62 65 75 23 6 54 24 70 41 25 26 34 29 64 24 20 -4 46
-11 59 -15z m759 -15 c-3 -3 -12 -4 -19 -1 -8 3 -5 6 6 6 11 1 17 -2 13 -5z
m-68 -24 c-23 -12 -45 -17 -60 -13 -21 6 -19 8 21 19 66 18 80 16 39 -6z m228
-19 c66 -48 113 -131 66 -117 -49 14 -71 17 -77 8 -3 -5 11 -12 32 -16 42 -6
85 -33 77 -47 -4 -5 3 -9 15 -9 35 0 76 -78 85 -162 8 -84 22 -122 68 -187 51
-71 51 -71 23 -71 -21 0 -26 5 -26 26 0 14 -4 23 -10 19 -5 -3 -10 -17 -10
-29 0 -20 -11 -27 -77 -51 -43 -16 -113 -46 -156 -67 -77 -38 -80 -39 -132
-28 -54 11 -120 5 -131 -11 -3 -5 28 -9 69 -9 40 0 77 -3 80 -7 4 -3 -12 -22
-34 -42 -23 -19 -54 -52 -70 -74 l-28 -38 -21 40 c-34 68 -204 185 -313 216
-44 13 -57 21 -53 32 3 8 6 37 6 64 0 45 2 49 24 49 25 0 29 -6 41 -67 6 -32
30 -61 42 -49 3 3 -1 14 -10 24 -10 10 -17 31 -17 45 0 15 -6 36 -12 47 -10
16 -10 23 3 35 12 13 21 14 43 5 44 -16 64 -11 26 8 -23 11 -36 25 -38 41 -3
21 -1 23 22 17 17 -4 26 -2 26 5 0 8 -18 10 -62 6 -75 -7 -98 3 -98 42 0 27 3
30 53 36 67 9 77 15 156 89 50 47 78 65 116 76 60 16 75 26 75 52 0 20 0 20
-17 1 -10 -11 -45 -28 -78 -38 -50 -15 -70 -28 -120 -80 -60 -63 -103 -85
-166 -85 -37 0 -41 -20 -43 -190 -1 -138 -2 -148 -29 -203 -18 -36 -47 -73
-78 -99 -28 -23 -65 -64 -84 -90 -30 -40 -40 -48 -67 -48 -28 0 -42 10 -92 68
-33 37 -75 92 -95 122 l-36 55 -3 203 c-2 148 0 202 8 202 7 0 3 15 -10 36
-23 41 -21 46 29 63 48 16 71 14 72 -6 0 -15 2 -14 9 3 13 33 55 61 110 74 64
15 70 26 20 34 -40 6 -80 35 -80 57 0 13 69 7 114 -11 27 -10 28 -13 24 -59
-6 -63 -36 -104 -103 -142 -54 -30 -78 -70 -56 -92 8 -8 11 -4 11 13 0 43 11
13 21 -56 8 -57 15 -75 43 -104 85 -91 88 -97 80 -167 -4 -42 -3 -63 4 -63 6
0 14 15 17 33 5 25 16 36 48 52 51 24 88 88 86 150 l-1 40 -13 -41 c-18 -56
-33 -84 -63 -116 -34 -37 -48 -35 -56 6 -4 19 -22 53 -41 77 -19 24 -35 50
-35 57 0 7 33 28 73 47 80 37 62 48 -25 15 -40 -15 -54 -17 -60 -7 -26 41 18
120 92 165 l54 32 9 -22 c8 -21 9 -20 22 16 40 113 217 205 375 194 36 -3 79
-12 97 -21 29 -16 31 -16 26 2 -7 26 56 50 133 50 52 1 67 -3 101 -28z m-702
-110 c-28 -27 -52 -35 -97 -32 -35 2 -18 30 25 41 23 6 47 13 52 15 6 2 19 4
30 4 17 1 16 -3 -10 -28z m-387 -4 c28 -34 19 -39 -163 -83 -210 -51 -221 -52
-228 -22 -4 12 -5 23 -4 25 4 3 360 92 373 92 6 1 16 -5 22 -12z m302 -56 c23
-7 21 -9 -27 -30 -29 -13 -69 -42 -89 -64 -36 -39 -37 -41 -31 -106 7 -80 -7
-51 -17 35 l-7 60 61 47 c33 26 60 51 60 57 0 11 13 11 50 1z m-382 -90 c2
-34 0 -51 -7 -47 -14 9 -34 84 -26 97 15 23 30 -1 33 -50z m-948 -125 c0 -22
-11 -26 -266 -90 -146 -36 -269 -64 -275 -61 -5 4 -9 17 -9 30 0 18 7 26 28
32 207 52 464 111 490 112 27 1 32 -2 32 -23z m1553 -32 c35 -8 34 -26 -4 -59
-37 -31 -45 -26 -55 34 -6 39 -5 43 12 38 10 -4 31 -9 47 -13z m-2113 -110 c0
-14 -4 -22 -10 -19 -5 3 -10 17 -10 31 0 14 4 22 10 19 6 -3 10 -17 10 -31z
m3045 -124 c3 -5 -3 -10 -14 -10 -11 0 -23 -4 -26 -10 -4 -6 6 -10 22 -10 40
0 150 -38 193 -67 37 -24 158 -71 270 -105 36 -10 72 -21 80 -24 8 -3 -15 -15
-51 -27 -36 -12 -77 -30 -91 -39 -50 -33 -101 -180 -110 -318 -3 -48 -1 -55
15 -52 9 2 17 -2 17 -8 0 -22 -35 -8 -108 45 -42 30 -86 55 -97 55 -11 0 -38
-11 -60 -23 -36 -20 -40 -26 -37 -56 l4 -33 -36 35 c-58 58 -198 85 -295 57
-68 -19 -151 -131 -151 -205 0 -18 -4 -25 -9 -20 -14 14 -34 173 -27 211 13
66 9 154 -9 180 -19 30 -32 26 -15 -6 6 -11 10 -29 7 -38 -5 -24 -47 113 -47
156 0 47 38 100 114 161 128 101 269 160 388 161 37 0 70 -4 73 -10z m-812
-100 c51 -32 106 -74 123 -92 33 -35 79 -107 72 -113 -4 -4 -322 257 -332 274
-13 20 43 -7 137 -69z m16 -93 l194 -163 27 -84 c15 -47 27 -86 26 -87 -3 -3
-368 313 -438 378 l-47 44 15 38 c9 20 19 37 23 37 3 0 93 -74 200 -163z
m-107 -73 c12 -15 18 -50 23 -156 l7 -138 27 7 c14 3 64 19 110 34 91 31 82
33 154 -26 74 -60 81 -56 -360 -202 l-398 -132 -32 37 c-27 30 -32 44 -30 76
l2 40 190 61 190 61 3 218 2 218 48 -40 c26 -22 54 -48 64 -58z m1541 -15
c104 -35 200 -87 265 -144 34 -30 93 -70 132 -91 62 -32 72 -42 95 -90 14 -29
30 -75 36 -101 10 -43 9 -54 -10 -91 -23 -46 -27 -78 -10 -84 22 -7 39 -250
31 -450 -8 -211 -2 -351 19 -390 8 -14 41 -47 74 -74 33 -26 91 -76 129 -111
53 -47 88 -69 140 -89 98 -36 134 -54 140 -71 10 -25 -5 -34 -22 -14 -15 17
-90 42 -124 41 -22 -1 53 -30 77 -30 28 0 47 -22 39 -44 -7 -19 -31 -20 -163
-6 -75 8 -100 15 -118 32 -13 12 -26 19 -29 15 -4 -3 -42 12 -85 34 l-79 39
-71 -11 c-88 -14 -134 -6 -155 26 -20 31 -15 64 25 175 35 96 40 177 17 292
-11 57 -11 66 1 57 29 -25 12 26 -31 90 -66 98 -80 158 -73 316 8 168 10 173
56 177 35 3 34 4 -21 16 -40 9 -79 29 -130 66 -102 75 -106 76 -248 96 -91 14
-143 27 -184 47 l-57 27 7 46 c24 170 56 250 112 283 69 41 129 45 215 16z
m-1348 -152 l40 -35 -74 -22 c-40 -12 -80 -24 -87 -27 -11 -4 -14 15 -14 97
l0 102 48 -41 c26 -22 65 -56 87 -74z m886 -212 c78 -61 101 -71 137 -56 24
10 40 9 88 -5 33 -10 104 -22 159 -28 l100 -11 3 -31 c4 -43 -19 -60 -160
-111 -148 -54 -429 -153 -435 -153 -2 0 -3 23 -1 51 l3 51 230 75 c127 41 235
80 240 85 15 16 -26 5 -252 -67 -110 -36 -208 -65 -217 -65 -11 0 -16 9 -16
33 0 18 -4 58 -9 88 -5 30 -12 80 -15 111 -6 55 -5 57 22 66 47 18 64 13 123
-33z m-283 21 c34 -18 75 -62 95 -101 42 -84 64 -349 32 -391 -14 -18 -14 -18
-15 6 0 20 -2 22 -10 10 -5 -8 -10 -42 -10 -74 0 -45 -6 -70 -25 -102 -14 -23
-31 -73 -39 -111 -8 -37 -34 -106 -58 -153 -40 -78 -88 -235 -88 -287 0 -45
18 -30 23 20 10 84 78 264 106 281 12 8 25 -134 16 -181 -4 -21 -22 -65 -41
-99 l-34 -61 0 -149 c0 -193 11 -257 50 -303 16 -20 59 -79 95 -131 36 -52 88
-124 115 -159 28 -35 50 -69 50 -76 0 -25 -29 -38 -71 -31 -32 5 -44 3 -57
-12 -22 -24 -112 -46 -154 -37 -18 4 -56 18 -85 31 -54 23 -55 24 -68 108 -4
22 -18 61 -31 88 -16 32 -24 64 -24 100 0 29 -4 68 -9 86 -6 20 -6 30 0 27 15
-10 10 23 -6 49 -13 20 -14 31 -4 71 15 58 8 138 -26 320 -33 175 -34 281 -5
395 12 47 25 89 29 93 4 4 13 -12 20 -35 15 -50 50 -122 57 -116 2 3 -5 31
-16 62 -22 64 -23 89 -16 296 l5 145 -50 77 c-52 79 -79 148 -79 203 0 42 49
117 91 138 44 21 198 23 237 3z m-338 -206 c0 -5 -2 -10 -4 -10 -3 0 -8 5 -11
10 -3 6 -1 10 4 10 6 0 11 -4 11 -10z m552 -522 c-1 -173 2 -299 7 -307 8 -13
45 -1 223 67 117 45 216 82 221 82 4 0 26 -12 48 -27 38 -25 40 -29 37 -71
l-3 -44 -365 -144 c-201 -79 -373 -146 -382 -150 -26 -8 -24 45 3 98 50 99 59
143 59 307 1 116 5 166 16 196 9 22 33 89 54 149 33 95 57 136 79 136 3 0 5
-132 3 -292z"/>
<path d="M4230 4445 c0 -2 24 -16 54 -30 145 -69 222 -239 233 -517 9 -206
-13 -291 -99 -384 -27 -29 -35 -44 -25 -44 24 0 94 87 119 149 21 51 23 71 23
236 0 194 -15 276 -70 400 -30 68 -103 147 -160 174 -42 20 -75 27 -75 16z"/>
<path d="M4000 4395 c0 -2 24 -16 54 -30 117 -55 185 -176 222 -396 20 -123
15 -296 -12 -376 -9 -29 -39 -80 -66 -114 -27 -33 -47 -63 -44 -66 8 -8 92 84
110 120 38 81 49 156 43 297 -12 283 -85 463 -220 540 -46 27 -87 38 -87 25z"/>
<path d="M3414 3798 c3 -13 6 -32 6 -43 1 -18 2 -18 10 -3 7 11 7 25 0 42 -12
32 -25 34 -16 4z"/>
<path d="M3370 3504 c0 -21 4 -33 10 -29 6 3 10 19 10 36 0 16 -4 29 -10 29
-5 0 -10 -16 -10 -36z"/>
<path d="M3335 3280 c0 -98 8 -126 21 -74 8 32 -1 153 -12 164 -5 5 -9 -35 -9
-90z"/>
<path d="M846 3621 c5 -5 26 -14 47 -21 53 -17 138 -99 174 -167 65 -123 103
-295 103 -462 0 -160 -23 -233 -99 -313 -46 -49 -34 -59 17 -14 111 101 137
336 67 611 -45 178 -127 304 -230 351 -49 24 -98 33 -79 15z"/>
<path d="M655 3561 c145 -67 237 -251 266 -533 19 -184 -11 -321 -88 -400 -47
-48 -35 -63 13 -17 84 81 116 220 96 416 -21 208 -77 369 -163 466 -44 50
-123 97 -161 97 -16 -1 -4 -10 37 -29z"/>
<path d="M1666 3471 c-3 -5 3 -11 14 -14 11 -3 28 -19 37 -36 17 -30 33 -40
33 -22 0 27 -73 90 -84 72z"/>
<path d="M2550 3401 c0 -18 37 -31 91 -31 63 0 55 16 -11 22 -25 3 -53 8 -62
12 -11 5 -18 4 -18 -3z"/>
<path d="M2571 3331 c10 -22 9 -27 -19 -50 -17 -14 -49 -38 -71 -53 -23 -15
-41 -36 -41 -45 0 -14 5 -12 23 10 12 15 41 33 66 40 35 10 47 19 58 44 11 28
10 34 -8 55 l-20 23 12 -24z"/>
<path d="M2646 3309 c16 -15 37 -22 83 -25 77 -4 72 11 -5 19 -31 3 -62 11
-67 16 -6 6 -16 11 -21 11 -6 0 -1 -9 10 -21z"/>
<path d="M2816 3249 c12 -13 26 -33 32 -44 11 -20 11 -20 12 1 0 20 -18 42
-50 59 -8 5 -6 -2 6 -16z"/>
<path d="M2660 3256 c0 -2 7 -20 15 -39 18 -44 19 -91 3 -105 -7 -6 -30 -13
-51 -17 -38 -7 -77 -44 -77 -73 0 -9 -8 -24 -17 -35 -14 -16 -15 -19 -3 -15 8
2 25 25 37 51 20 40 28 47 60 53 64 11 83 29 83 77 0 24 -8 56 -20 75 -17 28
-30 40 -30 28z"/>
<path d="M1648 3165 c2 -14 8 -25 13 -25 5 0 9 11 9 25 0 14 -6 25 -14 25 -9
0 -12 -8 -8 -25z"/>
<path d="M1690 3178 c1 -7 7 -26 16 -43 l14 -30 -5 34 c-3 18 -5 37 -5 42 0 5
-4 9 -10 9 -5 0 -10 -6 -10 -12z"/>
<path d="M2317 3144 c-21 -7 -44 -11 -52 -8 -8 4 -15 1 -15 -5 0 -22 31 -23
76 -3 54 23 47 36 -9 16z"/>
<path d="M2733 3143 c13 -12 131 -22 142 -11 9 9 -50 21 -107 22 -36 1 -44 -2
-35 -11z"/>
<path d="M2430 3073 c0 -83 -4 -93 -35 -111 -20 -11 -20 -11 1 -12 35 0 59 35
55 83 -2 23 -4 59 -5 80 -2 71 -16 37 -16 -40z"/>
<path d="M2752 3054 c11 -31 17 -63 14 -70 -3 -7 -22 -21 -42 -31 -55 -26 -57
-48 -2 -25 61 26 73 56 51 123 -10 29 -23 54 -29 56 -7 2 -4 -19 8 -53z"/>
<path d="M2884 3097 c3 -10 6 -32 6 -48 0 -18 4 -28 10 -24 15 9 12 49 -6 71
-14 17 -15 17 -10 1z"/>
<path d="M2312 3053 c14 -17 49 -16 72 0 16 12 12 13 -32 13 -39 -1 -48 -4
-40 -13z"/>
<path d="M1670 3012 c0 -27 24 -131 36 -153 25 -49 134 -114 134 -80 0 5 -23
24 -51 42 -56 35 -83 80 -95 157 -4 23 -10 42 -15 42 -5 0 -9 -4 -9 -8z"/>
<path d="M2817 3002 c-4 -5 15 -12 46 -15 50 -5 66 -2 55 8 -10 11 -96 17
-101 7z"/>
<path d="M2801 2975 c3 -5 16 -32 29 -58 l25 -49 -29 -24 c-33 -29 -31 -41 3
-18 35 25 41 54 21 95 -16 31 -60 80 -49 54z"/>
<path d="M2920 2960 c0 -5 4 -10 8 -10 5 0 16 -15 25 -32 12 -26 16 -29 16
-13 1 11 -6 31 -15 43 -16 23 -34 29 -34 12z"/>
<path d="M2430 2927 c0 -26 42 -48 78 -41 39 8 32 24 -10 24 -17 0 -40 7 -50
17 -17 15 -18 15 -18 0z"/>
<path d="M2332 2889 c18 -7 33 -7 45 0 14 8 9 10 -27 10 -42 -1 -43 -1 -18
-10z"/>
<path d="M2575 2875 c36 -29 46 -30 86 -9 39 20 33 28 -10 13 -25 -9 -36 -8
-56 5 -38 25 -53 19 -20 -9z"/>
<path d="M2893 2873 c9 -2 25 -2 35 0 9 3 1 5 -18 5 -19 0 -27 -2 -17 -5z"/>
<path d="M2700 2844 c0 -20 25 -63 32 -54 2 3 -4 21 -14 40 -13 26 -18 30 -18
14z"/>
<path d="M1785 2630 c-4 -6 6 -10 22 -10 16 0 34 -5 41 -12 9 -9 12 -9 12 0 0
7 -12 17 -26 22 -32 13 -41 13 -49 0z"/>
<path d="M2935 2765 c-16 -14 -55 -32 -85 -41 -78 -23 -120 -47 -161 -91 -62
-65 -99 -124 -99 -157 0 -28 3 -25 35 34 19 35 52 81 72 102 40 41 124 88 157
88 23 0 126 67 126 81 0 15 -14 10 -45 -16z"/>
<path d="M3090 2700 c-182 -63 -303 -131 -278 -156 4 -3 24 8 45 25 39 31 112
64 271 120 50 19 92 37 92 42 0 13 -6 12 -130 -31z"/>
<path d="M3249 2685 c-4 -3 -50 -16 -104 -30 -65 -16 -113 -34 -140 -54 -22
-16 -56 -36 -75 -44 l-35 -15 37 -1 c27 -1 48 8 84 35 36 28 71 42 142 60 102
25 106 27 100 44 -2 6 -6 9 -9 5z"/>
<path d="M3291 2614 c-36 -46 -64 -165 -42 -178 9 -6 13 6 26 89 4 22 16 55
27 73 25 41 18 52 -11 16z"/>
<path d="M2910 2431 c0 -11 25 -21 50 -21 27 0 74 -43 105 -95 23 -41 45 -58
45 -37 0 22 -82 133 -109 146 -32 17 -91 22 -91 7z"/>
<path d="M4050 2316 c0 -7 6 -29 14 -47 7 -19 17 -64 21 -102 4 -43 10 -65 17
-61 15 9 2 133 -18 184 -16 39 -34 53 -34 26z"/>
<path d="M3815 2181 c-3 -6 10 -17 30 -25 20 -9 55 -31 77 -51 58 -49 158 -75
158 -40 0 12 -7 15 -33 10 -24 -5 -40 -1 -64 17 -18 13 -51 37 -75 54 -50 36
-84 49 -93 35z"/>
<path d="M4145 1028 c-3 -7 -6 -31 -8 -53 l-2 -40 40 -2 40 -2 -34 10 c-33 10
-33 11 -26 55 6 41 0 59 -10 32z"/>
<path d="M2952 1877 c-48 -49 -64 -77 -43 -77 27 0 107 96 99 120 -2 6 -27
-13 -56 -43z"/>
<path d="M3050 1901 c0 -4 9 -20 21 -35 11 -14 25 -42 30 -61 11 -38 29 -47
29 -15 0 36 -50 120 -72 120 -4 0 -8 -4 -8 -9z"/>
<path d="M2944 1562 c12 -14 31 -22 53 -22 40 0 44 16 6 23 -16 3 -39 9 -53
13 -25 7 -25 7 -6 -14z"/>
<path d="M2901 634 c0 -6 -19 -39 -41 -73 -47 -72 -50 -84 -14 -50 33 31 67
95 61 117 -3 9 -5 12 -6 6z"/>
<path d="M2934 181 c-21 -21 42 -36 99 -24 21 4 39 12 40 17 2 9 -130 15 -139
7z"/>
<path d="M3111 160 c20 -27 39 -32 39 -10 0 14 -30 40 -46 40 -11 0 -9 -7 7
-30z"/>
</g>
</svg>
