<?xml version="1.0" standalone="no"?>
<!DOCTYPE svg PUBLIC "-//W3C//DTD SVG 20010904//EN"
 "http://www.w3.org/TR/2001/REC-SVG-20010904/DTD/svg10.dtd">
<svg version="1.0"
        xmlns="http://www.w3.org/2000/svg" width="64.000000pt" height="64.000000pt" viewBox="0 0 64.000000 64.000000" preserveAspectRatio="xMidYMid meet">

        <g transform="translate(0.000000,64.000000) scale(0.100000,-0.100000)" fill="#ffffff" stroke="none">
                <path d="M40 600 c-18 -18 -20 -33 -20 -180 0 -204 -3 -200 140 -200 143 0
140 -4 140 200 0 204 3 200 -140 200 -87 0 -103 -3 -120 -20z"/>
                <path d="M360 600 c-13 -13 -20 -33 -20 -60 0 -68 22 -80 140 -80 118 0 140
12 140 80 0 68 -22 80 -140 80 -87 0 -103 -3 -120 -20z"/>
                <path d="M360 400 c-18 -18 -20 -33 -20 -180 0 -204 -3 -200 140 -200 143 0
140 -4 140 200 0 204 3 200 -140 200 -87 0 -103 -3 -120 -20z"/>
                <path d="M40 160 c-27 -27 -27 -93 0 -120 30 -30 210 -30 240 0 27 27 27 93 0
120 -17 17 -33 20 -120 20 -87 0 -103 -3 -120 -20z"/>
        </g>
</svg>
