<?xml version="1.0" standalone="no"?>
<!DOCTYPE svg PUBLIC "-//W3C//DTD SVG 20010904//EN"
 "http://www.w3.org/TR/2001/REC-SVG-20010904/DTD/svg10.dtd">
<svg version="1.0"
    xmlns="http://www.w3.org/2000/svg" width="64.000000pt" height="64.000000pt" viewBox="0 0 64.000000 64.000000" preserveAspectRatio="xMidYMid meet">

    <g transform="translate(0.000000,64.000000) scale(0.100000,-0.100000)" fill="#ffffff" stroke="none">
        <path d="M444 622 c-67 -24 -103 -54 -154 -129 -47 -71 -138 -260 -181 -375
-28 -76 -28 -77 -9 -100 26 -31 49 -16 73 48 10 27 27 69 38 94 l20 45 46 -97
c39 -82 50 -98 69 -98 13 0 28 9 34 20 9 17 3 38 -34 117 -26 52 -46 99 -46
103 0 4 24 10 54 14 30 3 67 11 82 16 24 9 26 14 21 45 -3 20 -25 60 -52 94
-40 51 -45 62 -34 78 19 32 71 61 127 74 49 10 53 13 50 37 -4 34 -34 38 -104
14z m-66 -273 c11 -14 8 -17 -17 -21 -28 -4 -29 -4 -14 19 9 13 16 22 17 21 1
-2 7 -10 14 -19z"/>
        <path d="M416 514 c-38 -37 10 -108 56 -83 29 15 38 42 25 70 -15 30 -58 37
-81 13z"/>
    </g>
</svg>
