<?xml version="1.0" standalone="no"?>
<!DOCTYPE svg PUBLIC "-//W3C//DTD SVG 20010904//EN"
 "http://www.w3.org/TR/2001/REC-SVG-20010904/DTD/svg10.dtd">
<svg version="1.0"
    xmlns="http://www.w3.org/2000/svg" width="64.000000pt" height="64.000000pt" viewBox="0 0 64.000000 64.000000" preserveAspectRatio="xMidYMid meet">

    <g transform="translate(0.000000,64.000000) scale(0.100000,-0.100000)" fill="#ffffff" stroke="none">
        <path d="M517 622 c-19 -21 -22 -49 -7 -72 8 -13 -12 -16 -158 -20 l-167 -5
-3 -50 -3 -50 45 3 c89 7 159 -56 159 -143 0 -86 -66 -149 -155 -148 l-48 1 0
-69 0 -69 215 0 215 0 0 303 c0 282 -1 305 -18 320 -24 22 -55 21 -75 -1z m33
-185 c0 -7 -20 -33 -45 -57 l-45 -44 -30 29 c-21 20 -27 32 -20 39 7 7 17 6
32 -3 19 -11 24 -10 52 18 32 32 56 40 56 18z m0 -114 c0 -19 -68 -93 -85 -93
-6 0 -24 13 -40 30 -24 25 -26 30 -11 36 9 3 23 0 32 -7 13 -10 20 -7 47 19
35 35 57 41 57 15z m0 -116 c0 -17 -72 -87 -89 -87 -21 0 -51 30 -51 52 0 22
17 23 40 3 15 -13 20 -11 50 20 32 33 50 37 50 12z"/>
        <path d="M388 592 c-70 -25 -68 -32 5 -32 65 0 67 1 67 25 0 29 -8 30 -72 7z"/>
        <path d="M190 382 c-50 -24 -77 -82 -62 -130 11 -36 11 -38 -43 -92 -54 -54
-67 -80 -43 -80 7 0 37 24 68 54 l55 55 40 -11 c54 -15 107 9 130 59 30 63 2
126 -68 152 -36 14 -36 14 -77 -7z"/>
    </g>
</svg>
