<svg id="visual" viewBox="0 0 1200 100" width="1200" height="100" xmlns="http://www.w3.org/2000/svg" xmlns:xlink="http://www.w3.org/1999/xlink" version="1.1"><rect x="0" y="0" width="1200" height="100" fill="#F7FAFC"></rect><path d="M0 37L15.3 37C30.7 37 61.3 37 92.2 32.7C123 28.3 154 19.7 184.8 17.5C215.7 15.3 246.3 19.7 277 23.5C307.7 27.3 338.3 30.7 369.2 32.5C400 34.3 431 34.7 461.8 34C492.7 33.3 523.3 31.7 554 29.3C584.7 27 615.3 24 646 22.5C676.7 21 707.3 21 738.2 21.5C769 22 800 23 830.8 25C861.7 27 892.3 30 923 32C953.7 34 984.3 35 1015.2 32C1046 29 1077 22 1107.8 18C1138.7 14 1169.3 13 1184.7 12.5L1200 12L1200 101L1184.7 101C1169.3 101 1138.7 101 1107.8 101C1077 101 1046 101 1015.2 101C984.3 101 953.7 101 923 101C892.3 101 861.7 101 830.8 101C800 101 769 101 738.2 101C707.3 101 676.7 101 646 101C615.3 101 584.7 101 554 101C523.3 101 492.7 101 461.8 101C431 101 400 101 369.2 101C338.3 101 307.7 101 277 101C246.3 101 215.7 101 184.8 101C154 101 123 101 92.2 101C61.3 101 30.7 101 15.3 101L0 101Z" fill="#f7fafc"></path><path d="M0 19L15.3 23.3C30.7 27.7 61.3 36.3 92.2 36.7C123 37 154 29 184.8 27.7C215.7 26.3 246.3 31.7 277 36.7C307.7 41.7 338.3 46.3 369.2 47.7C400 49 431 47 461.8 47.7C492.7 48.3 523.3 51.7 554 48.5C584.7 45.3 615.3 35.7 646 31.2C676.7 26.7 707.3 27.3 738.2 26.3C769 25.3 800 22.7 830.8 26C861.7 29.3 892.3 38.7 923 41.5C953.7 44.3 984.3 40.7 1015.2 40.5C1046 40.3 1077 43.7 1107.8 41C1138.7 38.3 1169.3 29.7 1184.7 25.3L1200 21L1200 101L1184.7 101C1169.3 101 1138.7 101 1107.8 101C1077 101 1046 101 1015.2 101C984.3 101 953.7 101 923 101C892.3 101 861.7 101 830.8 101C800 101 769 101 738.2 101C707.3 101 676.7 101 646 101C615.3 101 584.7 101 554 101C523.3 101 492.7 101 461.8 101C431 101 400 101 369.2 101C338.3 101 307.7 101 277 101C246.3 101 215.7 101 184.8 101C154 101 123 101 92.2 101C61.3 101 30.7 101 15.3 101L0 101Z" fill="#f0f2fb"></path><path d="M0 72L15.3 68C30.7 64 61.3 56 92.2 52.2C123 48.3 154 48.7 184.8 49.5C215.7 50.3 246.3 51.7 277 55.2C307.7 58.7 338.3 64.3 369.2 64.3C400 64.3 431 58.7 461.8 56.5C492.7 54.3 523.3 55.7 554 57.7C584.7 59.7 615.3 62.3 646 60.5C676.7 58.7 707.3 52.3 738.2 50.8C769 49.3 800 52.7 830.8 52.3C861.7 52 892.3 48 923 45.5C953.7 43 984.3 42 1015.2 45.2C1046 48.3 1077 55.7 1107.8 58.5C1138.7 61.3 1169.3 59.7 1184.7 58.8L1200 58L1200 101L1184.7 101C1169.3 101 1138.7 101 1107.8 101C1077 101 1046 101 1015.2 101C984.3 101 953.7 101 923 101C892.3 101 861.7 101 830.8 101C800 101 769 101 738.2 101C707.3 101 676.7 101 646 101C615.3 101 584.7 101 554 101C523.3 101 492.7 101 461.8 101C431 101 400 101 369.2 101C338.3 101 307.7 101 277 101C246.3 101 215.7 101 184.8 101C154 101 123 101 92.2 101C61.3 101 30.7 101 15.3 101L0 101Z" fill="#f4e7f4"></path><path d="M0 80L15.3 79C30.7 78 61.3 76 92.2 78.3C123 80.7 154 87.3 184.8 88.7C215.7 90 246.3 86 277 82.5C307.7 79 338.3 76 369.2 76.2C400 76.3 431 79.7 461.8 83C492.7 86.3 523.3 89.7 554 90C584.7 90.3 615.3 87.7 646 84.5C676.7 81.3 707.3 77.7 738.2 73.7C769 69.7 800 65.3 830.8 68.5C861.7 71.7 892.3 82.3 923 83.7C953.7 85 984.3 77 1015.2 74.3C1046 71.7 1077 74.3 1107.8 79.3C1138.7 84.3 1169.3 91.7 1184.7 95.3L1200 99L1200 101L1184.7 101C1169.3 101 1138.7 101 1107.8 101C1077 101 1046 101 1015.2 101C984.3 101 953.7 101 923 101C892.3 101 861.7 101 830.8 101C800 101 769 101 738.2 101C707.3 101 676.7 101 646 101C615.3 101 584.7 101 554 101C523.3 101 492.7 101 461.8 101C431 101 400 101 369.2 101C338.3 101 307.7 101 277 101C246.3 101 215.7 101 184.8 101C154 101 123 101 92.2 101C61.3 101 30.7 101 15.3 101L0 101Z" fill="#fbdce2"></path></svg>